<?xml version="1.0" standalone="no"?>
<!DOCTYPE svg PUBLIC "-//W3C//DTD SVG 1.1//EN" "http://www.w3.org/Graphics/SVG/1.1/DTD/svg11.dtd" >
<svg xmlns="http://www.w3.org/2000/svg">
<metadata>
This is a custom SVG webfont generated by Font Squirrel.
Copyright   : The digitally encoded machine readable outline data for producing the Typefaces licensed to you is copyrighted C 1999 by and the property of Heidelberger Druckmaschinen AG  andor its subsidiaries All rights reserved
</metadata>
<defs>
<font id="ZapfinoLinotypeOneRegular" horiz-adv-x="1261" >
<font-face units-per-em="2048" ascent="1638" descent="-410" />
<missing-glyph horiz-adv-x="1024" />
<glyph unicode=" "  horiz-adv-x="1024" />
<glyph unicode="&#x09;" horiz-adv-x="1024" />
<glyph unicode="&#xa0;" horiz-adv-x="1024" />
<glyph unicode="!" horiz-adv-x="450" d="M164 27q0 82 61 82q45 0 45 -50q0 -29 -19.5 -50t-47.5 -21q-39 0 -39 39zM248 203v2q123 352 233 565q33 63 99 64q45 0 75 -13q6 -2 7 -8q0 -8 -9 -8h-4q-23 0 -43 -17q-129 -106 -342 -587q-2 -6 -8 -6q-8 0 -8 8z" />
<glyph unicode="&#x22;" horiz-adv-x="669" d="M338 463q0 6 4 10q47 70 154 246q96 160 157 244q14 18 33 18q37 0 37 -29q0 -8 -6 -14q-111 -143 -357 -481q-2 -6 -10 -6q-12 0 -12 12zM494 453q0 4 4 8q109 186 305 487q10 16 35 17q35 0 34 -23q0 -8 -6 -14q-39 -61 -198 -269q-94 -125 -152 -208q-4 -6 -12 -7 q-10 1 -10 9z" />
<glyph unicode="#" horiz-adv-x="673" d="M125 -41q0 8 6 18q35 55 139 224l-75 -13q-12 0 -13 9l23 26q20 43 112 53q45 70 132 211q-14 0 -40 -5t-40 -5h-4q-10 0 -11 8l4 9q10 20 33 53q8 12 64 14h39q45 76 100 164q16 25 31 27q2 0 2 2q10 0 10 -11q0 -8 -4 -12q-51 -72 -117 -170l127 6l137 215q12 20 25 21 q8 0 8 -8q0 -10 -8 -23q-39 -55 -137 -203q33 2 92 4q8 0 8 -6q0 -2 -4 -6q-29 -23 -59 -47q-23 -14 -82 -14q-27 -39 -60 -92q-18 -31 -71 -119h38q72 0 72 -31q0 -2 -27 -53q-6 -10 -16 -10q-16 0 -54 9t-59 9q-74 -129 -129 -240q-4 -14 -16 -14q-16 0 -16 18q0 10 8 23 q51 80 131 213q-68 0 -127 -8q-92 -158 -129 -246q-10 -25 -23 -25q-20 0 -20 25zM342 281q41 4 127 8q43 72 131 213l-129 -13z" />
<glyph unicode="$" horiz-adv-x="741" d="M68 133v2q0 10 8 10q6 -2 6 -8q12 -111 174 -147q90 166 268 471q-66 16 -94 26q-63 23 -78.5 42.5t-15.5 43.5q0 18 8 41q55 145 164 234q72 57 145 57q68 0 105 -47l76 129q14 25 34 41q4 4 11 4q6 0 6 -6t-2 -10q-29 -47 -111 -180q18 -33 19 -68v-12q0 -10 -33 -68 q-2 -6 -8 -6q-10 0 -11 12q0 35 -12 66l-149 -248q29 -8 86 -33q102 -45 102 -143q0 -143 -166 -273q-172 -133 -324 -133h-24q-59 -123 -133 -325q-4 -10 -8 -11q-12 0 -13 29q0 18 4 31q45 135 123 280q-154 27 -153 134q0 20 -4 65zM281 -14q20 -4 59 -4q129 0 217 71 q117 96 117 240q0 119 -131 162q-127 -217 -242 -430q-16 -29 -20 -39zM408 651q0 -84 143 -131l6 -2l156 266q-43 70 -117 70q-51 0 -94 -35q-94 -74 -94 -168z" />
<glyph unicode="%" horiz-adv-x="1296" d="M119 -240q0 2 3 9.5t3 13.5t-2 10v6q0 12 14 27q600 559 824 860q106 143 106 203q0 80 -121 80q-25 0 -63 -6q-63 -16 -197 -43h-18q-27 0 -37 10q-49 -25 -92 -84q-82 -117 -95 -228v-16q0 -66 50 -65q23 0 53 18q72 43 118 128t46 169v4q0 16 -10 34l-9 17q0 8 6 8h2 q0 -2 2 -2l54 -20q20 -12 20 -55q0 -104 -102.5 -215t-204.5 -111q-100 0 -100 86v18q16 121 120 238q49 55 134 84q-6 10 -7 27q0 53 17 53q2 0 14 -15.5t39 -15.5q41 0 120 11.5t120 11.5q63 0 108 -27q53 -31 53 -90q0 -160 -782 -969q322 223 348 242q203 133 363 219 l37 21q6 0 6 -7v-2q0 -4 -35 -37q-41 -39 -43 -41q-33 -39 -63.5 -116.5t-30.5 -128.5q0 -76 55 -76q39 0 86 47q106 109 107 264v17q-2 35 -60 90q0 -4 53 35q2 2 9 2q8 0 16 -7q27 -23 111 -30h86q14 0 14 -6q-2 -4 -14 -7q-4 0 -131 -14q-18 -2 -19 -18q0 -6 2 -19.5 t2 -21.5q0 -45 -22 -107q-35 -94 -103 -166q-84 -88 -170 -88q-92 0 -92 99q0 127 141 268q-483 -303 -813 -574q-8 -8 -18 -8h-2q-6 0 -6 6z" />
<glyph unicode="&#x26;" horiz-adv-x="1808" d="M186 68q0 119 64 249q57 123 147 215q319 328 766 328h31q23 41 41 62q41 45 84 45q35 0 35 -33t-29 -86q307 -61 307 -324q0 -94 -43 -196q-80 -193 -270 -328q76 -47 158 -47q53 0 106 18q135 47 166 199q6 31 6 57q0 117 -69 174q-12 10 -31 13q-8 2 -10 8q0 6 10 6h8 q10 0 29.5 4t29.5 4q35 0 60.5 -29.5t32.5 -66.5q4 -29 4 -47q0 -66 -29 -133q-72 -170 -244 -226q-63 -20 -131 -20q-94 0 -166 43q-145 -78 -315 -78q-127 0 -209 55q-94 63 -94 185q0 137 149 272q68 61 264 191q10 8 54 39q16 84 88 223q-6 0 -19 2h-18q-80 0 -174 -15 q-258 -39 -459 -229q-254 -242 -254 -557q0 -176 105 -285q154 -160 469 -159q319 0 540 182l13 8q2 0 4 -2l-2 -2q0 -29 -62.5 -69t-111.5 -60q-188 -74 -390 -72q-260 4 -432 111q-209 127 -209 371zM700 59q0 -160 234 -159q172 0 299 67q-166 117 -166 412q0 84 16 176 q-10 -10 -39 -35l-6 -6q-133 -119 -184 -174q-154 -164 -154 -281zM1104 461q0 -301 201 -451q61 45 122 107q164 168 164 385q0 203 -182 293q-37 18 -94 32q-41 -70 -129 -174q-23 -27 -74 -73q-8 -51 -8 -119zM1124 641q119 98 168 193q-29 6 -90 10q-49 -86 -78 -203z M1212 860q57 -4 91 -8q20 41 20 61q0 29 -25 29q-35 0 -86 -82z" />
<glyph unicode="'" horiz-adv-x="446" d="M369 528q0 6 2 11l114 213q63 117 119 200q12 18 33 19q35 0 35 -25q0 -4 -4 -10q-8 -16 -133 -195q-45 -70 -146 -219q-4 -4 -8 -4q-12 0 -12 10z" />
<glyph unicode="(" horiz-adv-x="749" d="M205 98q0 53 22 123q80 248 276.5 480.5t424.5 342.5h4q4 0 8 -4v-2q0 -6 -6 -8q-111 -49 -201 -141q-266 -268 -405 -610q-61 -150 -62 -238q0 -88 64 -139q4 -2 4 -8t-6 -7q-2 0 -6 2q-117 74 -117 209z" />
<glyph unicode=")" horiz-adv-x="831" d="M248 -102q0 6 8 8q129 43 248 178q258 295 375 623q43 121 43 196q0 76 -45 119q-4 4 -5 8q0 2 2 2v2q2 2 5 2q41 0 69 -94q23 -76 23 -127q0 -100 -72 -254q-102 -221 -256 -397q-188 -217 -381 -273h-6q-8 1 -8 7z" />
<glyph unicode="*" horiz-adv-x="520" d="M299 608v4q0 25 25 29q61 10 182 39q-43 33 -162 119q-12 8 -12 22q0 27 30 27q8 0 15 -6l141 -148q10 100 31 213q6 10 31 11h4q16 0 16 -17q0 10 -63 -209q100 35 180 76q8 4 14 4q20 0 27 -18q0 -2 2 -2v-4q0 -18 -29 -27q-53 -10 -188 -45q66 -43 162 -115 q8 -6 8 -16q0 -25 -29 -25q-6 0 -156 137q-8 -86 -12 -196q0 -14 -35 -19h-6q-18 0 -18 15v6q18 57 55 203l-186 -78q0 -2 -2 -2q-21 -1 -25 22z" />
<glyph unicode="+" horiz-adv-x="819" d="M266 254v61h254v254h62v-254h254v-61h-254v-254h-62v254h-254z" />
<glyph unicode="," horiz-adv-x="430" d="M-63 -254q0 6 6 16q135 154 340 428q8 14 22 15q20 0 21 -64q0 -18 -17 -37q-176 -193 -352 -368q-6 -2 -10 -2q-10 0 -10 12z" />
<glyph unicode="-" horiz-adv-x="473" d="M217 272q0 18 25 19h2h51q10 0 27 -2h14q37 0 109.5 2t109.5 2q23 0 23 -14q0 -16 -27 -17h-96h-88q-111 -2 -129 -2q-21 0 -21 12z" />
<glyph unicode="." horiz-adv-x="450" d="M168 20v7q0 35 27.5 66.5t62.5 31.5q8 0 12 -2q27 -8 27 -33q0 -4 -4 -16q-20 -59 -74 -82q-4 -2 -14 -2q-37 -1 -37 30z" />
<glyph unicode="/" horiz-adv-x="753" d="M197 -322q0 16 331 730l332 708q14 20 25 21q16 0 16 -15q0 -6 -663 -1441q-10 -16 -25 -17q-16 0 -16 14z" />
<glyph unicode="0" horiz-adv-x="716" d="M174 145q0 211 244 488q72 82 164 121q68 29 235 102q14 6 25 6q35 0 61 -45q23 -35 29 -76q4 -25 4 -49q0 -86 -39 -194q-68 -188 -199 -340q-156 -180 -333 -181h-13q-10 2 -14 3q-164 13 -164 165zM274 166q0 -158 129 -158q70 0 156 58q127 84 213 256q84 166 84 323 q0 158 -90 158q-23 0 -51 -10q-127 -45 -215 -142q-158 -172 -213 -385q-13 -47 -13 -100z" />
<glyph unicode="1" horiz-adv-x="569" d="M297 68q0 35 20 77q102 217 383 609l5 8v2q0 2 -3 2q-2 0 -6 -4q-182 -150 -348 -299q-8 -6 -14 -6h-4v4q0 16 43 59q6 4 47 37q182 143 301 246q27 23 41 28q29 12 65 29l13 4q6 0 6 -4q-2 -8 -6 -14q-266 -375 -443 -727q-35 -70 -35 -109q0 -35 23 -63q2 -2 2 -8 q0 -8 -6 -9q-4 0 -8 4q-76 91 -76 134z" />
<glyph unicode="2" horiz-adv-x="835" d="M12 63q0 29 31 56q90 80 256 80h37h41q53 -2 39 -2q256 207 344 391q18 39 18 76q0 53 -38 81.5t-91 28.5h-14q-131 -8 -211 -106q-10 -10 -25 -33l-16 -25q-2 -4 -8 -4q-8 0 -8 8q0 4 13 20.5t15 20.5q152 201 310 201t157 -121q0 -43 -22 -90q-70 -150 -281 -346 q-55 -51 -115 -102q285 -14 420 -86q25 -12 25 -31q0 -8 -2 -12q-16 -78 -23 -78q-4 0 -10 4q-109 106 -487 137q-172 -143 -250 -143q-37 0 -68 20q-37 22 -37 55zM35 72q0 -27 37 -33h12q8 -2 12 -2q88 0 234 96q-23 2 -62 2q-111 0 -196 -22q-37 -10 -37 -41z" />
<glyph unicode="3" horiz-adv-x="749" d="M104 74q0 29 13 61q4 12 10 10q6 0 4 -14q-10 -74 80 -115q66 -29 151 -32q137 -6 244 82q90 74 90 165q0 49 -30 93q-31 31 -78 90q-10 18 -10 32q0 29 30 50q18 12 176 110q66 41 66 84q0 27 -29 55q-70 70 -190 66q-123 -4 -189 -100q-6 -10 -14 -11q-6 0 -8 9 q-2 8 4 14q70 70 194 131q57 29 136 16q166 -27 166 -120q0 -88 -125 -159t-125 -112q0 -20 22 -51q20 -23 39 -45q49 -63 49 -111q0 -39 -20 -75q-49 -88 -131 -146q-160 -113 -334 -112q-191 0 -191 135z" />
<glyph unicode="4" horiz-adv-x="966" d="M207 328q0 29 26 65q72 100 224 225q143 119 264 185q109 59 203 55q43 -2 43 -37q0 -8 -6 -22q-63 -152 -177 -324q-63 -96 -114 -192q242 12 438 82q12 4 14 -3q0 -6 -7 -17t-17.5 -24.5t-26.5 -13.5q-137 -18 -414 -45q-113 -209 -100 -242q4 -12 2 -16t-6 -4 q-2 0 -4 2q-8 6 -39 2q-37 -4 -88 -51q-14 -16 -55 -62q-8 -8 -15 -2q-4 8 2 17q102 127 240 350q-98 -6 -193 -6q-102 0 -161 29q-33 16 -33 49zM305 381q0 -61 131 -88q80 -14 172 -12q127 207 199 344q43 84 43 131q0 66 -66 53q-84 -16 -241 -147q-145 -121 -205 -207 q-33 -47 -33 -74z" />
<glyph unicode="5" horiz-adv-x="638" d="M29 0q0 29 8 29q6 -2 6 -9v-12q-2 -6 -2 -8q0 -78 98 -78h8q215 0 371 223q63 92 64 158q0 59 -47 105q-25 20 -82 61q-49 35 -50 57q0 2 3 6v5q25 104 182 303q6 12 22 12h4q2 -2 4 -2q49 -14 117 -14q207 0 269 114q12 23 12 47q0 16 -10 37q-2 2 -2 8q0 4 6 5 q6 0 10 -5q12 -20 12 -51q0 -25 -10 -49q-45 -111 -166 -160q-82 -33 -166 -32q-59 0 -119 14h-4q-16 0 -80 -98q-20 -39 -20 -64q0 -47 98 -106q16 -10 60 -39q49 -37 49 -105q0 -55 -35 -116q-68 -119 -209 -224q-156 -113 -280 -112h-9q-45 0 -78.5 27.5t-33.5 72.5z" />
<glyph unicode="6" horiz-adv-x="690" d="M195 106q0 47 16 97q102 309 502 579q209 141 354 142q119 0 119 -93q0 -41 -15 -40q-4 2 -4 6v2q0 2 2 6v4q0 74 -131 74h-18q-133 0 -301 -117q-137 -96 -250 -244q-84 -113 -123 -203q127 121 242 121q123 0 123 -108q0 -41 -23 -88q-74 -158 -223 -232 q-70 -35 -139 -35q-131 0 -131 129zM283 100q0 -102 75 -102q100 0 202 127t102 229q0 68 -72 68q-143 0 -254 -143q-53 -70 -53 -179z" />
<glyph unicode="7" horiz-adv-x="681" d="M250 31q0 66 51 127q100 121 231 252q328 324 328 338v2q-2 2 -6 2h-2q-2 -2 -4 -2q-45 -12 -105 -13q-43 0 -112 8q-86 10 -111 13h-20q-86 0 -125 -60q-51 -80 -78 -168q-2 -8 -10 -8q-6 0 -6 8v2q41 141 122 238q59 70 146 70h12q6 -2 10 -2q117 -25 258 -50 q25 -4 43 -4q2 0 7 2h6q20 4 37 23q43 45 73 45h6q14 -4 15 -14q0 -8 -4 -11q-47 -45 -109 -67q-203 -215 -379 -391q-193 -193 -192 -308q0 -41 28 -59q10 -8 11 -14q0 -2 -49 -23q-29 -12 -35 -12q-37 0 -37 76z" />
<glyph unicode="8" horiz-adv-x="677" d="M190 111q0 164 314 342l43 24q-31 53 -31 98q0 98 97.5 189.5t195.5 91.5h10q78 -6 78 -72q0 -100 -154 -206q-47 -33 -106 -68l8 -14q16 -16 31 -37q47 -68 47 -127q0 -43 -23 -88q-92 -186 -280 -254q-45 -16 -84 -17q-63 0 -104.5 37.5t-41.5 100.5zM262 154 q0 -59 39 -96.5t98 -37.5q57 0 125 48q57 41 97 94q33 45 32 98q0 74 -98 203q-141 -82 -188 -123q-105 -88 -105 -186zM575 637q0 -47 50 -113q145 86 190 187q14 33 14 53q0 59 -61 59q-23 0 -43 -8q-80 -31 -127 -106q-23 -35 -23 -72z" />
<glyph unicode="9" horiz-adv-x="645" d="M-49 39q0 6 6 6l4 -2q45 -45 123 -45h10q236 0 447 307q76 111 125 227q-121 -129 -248 -129q-123 0 -123 105q0 41 27 92q76 147 225 219q82 39 141 39q123 0 123 -117q0 -186 -188 -424q-250 -313 -506 -346q-8 -2 -27 -2q-37 0 -82 19q-57 22 -57 51zM340 498 q0 -72 84 -72q115 0 217 115q27 29 45 65q49 94 49 152q0 76 -69 76q-61 0 -146 -58q-131 -88 -174 -244q-6 -22 -6 -34z" />
<glyph unicode=":" horiz-adv-x="489" d="M119 20v7q0 35 27.5 66.5t62.5 31.5q8 0 12 -2q27 -8 27 -33q0 -4 -4 -16q-20 -59 -74 -82q-4 -2 -14 -2q-37 -1 -37 30zM299 358v7q0 35 27.5 66.5t62.5 31.5q8 0 12 -2q27 -8 27 -33q0 -4 -4 -16q-20 -59 -74 -82q-4 -2 -14 -2q-37 -1 -37 30z" />
<glyph unicode=";" horiz-adv-x="473" d="M-109 -254q0 6 7 16q135 154 340 428q8 14 22 15q18 0 19 -66q0 -18 -15 -35q-174 -190 -352 -368q-6 -2 -10 -2q-11 0 -11 12zM297 360v7q0 35 26.5 66.5t61.5 31.5q10 0 14 -2q25 -6 25 -33q0 -10 -2 -16q-20 -59 -74 -82q-4 -2 -14 -2q-37 -1 -37 30z" />
<glyph unicode="&#x3c;" horiz-adv-x="514" d="M209 197v4q0 8 14 18q2 2 78 62q254 201 258 200q8 0 8 -10v-4q-10 -8 -32 -29q-74 -53 -248 -190q-18 -14 -19 -29q0 -4 4 -20q27 -78 80 -232q0 -6 -14 -6q-61 -12 -47 -12q-10 0 -15 16q-32 126 -67 232z" />
<glyph unicode="=" horiz-adv-x="2320" d="M39 500q8 416 383 602q291 143 749 135q373 -6 621 -123q61 45 100 45q16 0 37 -14l2 -51l-6 -2l-4 20q-27 18 -51 18q-37 0 -66 -20q166 -68 271 -174q129 -131 129 -287h65q10 0 10 -6q-2 -4 -10 -4h-65q-2 -92 -33 -166q2 -25 2 -55q0 -133 -77 -267.5t-191 -213.5 q-274 -193 -764 -193q-143 0 -273 20q-53 -63 -110 -110q-180 -150 -328 -150q-123 0 -188 76q-25 29 -31 84q4 -25 12 -41q45 -94 195 -94q172 0 332 137q70 59 104 103q-328 55 -551 225q-270 205 -264 506zM78 463q-16 -334 366 -543q190 -104 418 -141q23 29 68 90 q41 55 213 334q-51 20 -154 65q-10 -16 -33 -63q-41 -84 -41 -94q0 -18 33 -31l-2 -6l-18 6q-51 12 -51 37q0 14 18 47l31 53q2 6 37 59q-16 10 -113 52q-41 18 -152 69q-51 25 -159 70q-39 16 -131 37q-70 -29 -148 -29q-31 0 -31 14q0 29 113 31q31 0 68 -8q8 4 16 6 q29 10 63 27l113 51q41 18 141 76q-29 0 -116 -6q-53 -4 -160 -23l-4 19q59 12 164 16l106 4h31q29 20 108 80q156 121 156 145q-4 4 -39 2q-94 -2 -190 -32q-55 -16 -56 -48q0 -10 15 -24l-4 -2q-23 23 -23 43q0 37 17 49q39 31 215 47l106 10l2 -16q-8 -27 -110 -115 q-88 -76 -183 -137h31l115 4l184 4q0 -8 20 -18q4 2 19 20q10 12 22 13h7l-5 -5q-6 -8 -16 -18q-14 -20 -53 -74l-4 -6q-41 -59 -41 -72q0 -10 12 -10t23 8q61 37 168 175q14 18 40 63l3 -18q-4 -25 -37 -68q-8 -8 -25 -31q43 14 68 27l2 -19l-17 -28l-28 -41 q-35 -49 -35 -74q0 -12 12 -12q63 0 156 139q-23 0 -64 -6l-4 4q6 2 74 12l14 21q20 29 68 94q121 170 203 252q35 35 94 86q-250 109 -658 104q-393 -4 -675 -163q-355 -201 -373 -584zM240 492q0 -8 24 -9q61 0 129 25q-16 4 -41 4q-112 0 -112 -20zM430 510 q100 -18 272 -96q4 -2 156 -74q63 -31 113 -51l14 22q72 113 133 203l31 45q-80 -63 -109 -63q-18 0 -18 18q0 16 27 57l-15 -10q-76 -68 -100 -67q-23 0 -23 20q0 33 54 72q25 18 65 45q14 8 80 45q-31 2 -66 2h-61q-84 -2 -63 -2h-66q-2 0 -39 -2h-22q-18 -2 -33 -2 q-41 -27 -156 -86zM877 -225q119 -16 223 -17q479 0 766 224q205 160 268 354q27 82 27 121q-80 -168 -232.5 -256t-333.5 -88q-152 0 -272 32q-43 12 -156 50q-92 -152 -215 -324q-40 -57 -75 -96zM954 526q0 -8 7 -10q27 0 141 127q12 12 12 19q-6 2 -37 -15 q-47 -25 -94 -76q-29 -31 -29 -45zM995 279q84 -39 156 -64q96 166 195 346q-86 -82 -132 -82q-23 0 -22 23q0 27 53 100q29 39 29 47q-2 6 -4 6q-45 0 -144 -149q-63 -98 -131 -227zM1178 209q154 -53 305 -53q184 0 346 55q193 68 287 195q27 37 45 83q-4 33 -19 84 q-4 18 -31 64q-37 0 -108.5 -3t-108.5 -3h-30q-53 -186 -140 -187q-16 0 -16 17q0 8 4 24l2 9q-61 -43 -86 -43q-33 0 -33 22q0 23 31 80q12 23 43 70q-14 0 -37 -25q-37 -25 -65 -74l-23 -39l-16 -24l-8 14l18 35l14 29q-76 -76 -112 -76q-29 0 -29 26q0 16 43 80l29 43 q14 20 16 29q0 6 -12 6h-47q-2 -4 -17 -29q-128 -219 -245 -409zM1446 655h33q4 0 12 2h14l49 7l-30 -41q-74 -98 -74 -127q0 -14 12 -15q16 0 45 29q14 8 41 41q4 4 58 92q10 16 20 16q8 0 8 -8q0 4 -45 -80l35 33q14 14 44 32l30 17l10 -8q-78 -127 -78 -158q0 -18 19 -18 q20 0 69 41q59 123 113 123q6 0 14 -4q2 10 2 24l15 11q27 -18 82 -19h38q-20 0 62 2h61q-10 12 -24 27l4 6q18 -16 33 -33q-12 0 39 2h38q-10 150 -137 279q-109 111 -264 174q-98 -80 -235 -273q-43 -61 -113 -174zM1567 766q14 29 30 29q8 0 15 -7q-4 -6 -4 -10 q0 -2 2 -2v-6q0 -18 -23 -18q-20 0 -20 14zM1739 487q0 -18 14 -18q27 0 64 72q25 47 24 75q0 10 -6 11q-20 0 -58 -57.5t-38 -82.5zM2124 637q35 -61 47 -135q4 18 16 69q2 10 8 68h-34q-47 -2 -37 -2z" />
<glyph unicode="&#x3e;" horiz-adv-x="460" d="M123 -51q0 6 12 16q119 92 260 219q14 12 15 23q0 4 -9 18q-63 104 -129 211q-4 8 -4 13q0 4 41 16q4 2 13 2q14 0 84 -119q20 -35 63 -102q4 -8 4 -13q0 -12 -8 -18q-154 -115 -293 -260q-16 -16 -33 -16q-16 0 -16 10z" />
<glyph unicode="?" horiz-adv-x="561" d="M188 41q0 2 2 6v4q6 33 33 53q8 6 39 23q2 2 6 2q10 0 15 -14q4 -35 20 -52q6 -6 6 -14q0 -27 -59 -47q-12 -4 -19 -4q-43 0 -43 43zM322 305q0 4 2 10v9q4 20 65 51q29 14 84 41q193 123 240 229q23 51 22 92q0 55 -31.5 89t-87.5 34q-129 0 -217 -147q-2 -4 -12 -4 q-8 0 -8 6q0 2 2 6q49 82 145 139q70 43 140 43q33 0 67 -12q88 -31 88 -125q0 -131 -190 -268q-53 -37 -185 -136q-35 -33 -34 -69q0 -63 71 -80q8 -2 9 -8q0 -10 -11 -10h-2q-6 0 -18 2h-37q-12 -2 -18 -2h-5q-35 0 -57 36.5t-22 73.5z" />
<glyph unicode="@" horiz-adv-x="1191" d="M178 199q0 88 41 176q111 240 322 397q227 172 477 172q37 0 57 -2q119 -12 193 -74q80 -68 80 -182q0 -102 -68 -217q-150 -256 -383 -256q-111 0 -111 90q0 63 60 191q-213 -264 -301 -265q-35 0 -35 45q0 37 27 97q45 100 127 188q92 98 184 125q43 12 90 12 q37 0 72 -10q6 0 6 -8q0 -10 -8 -16q-23 -14 -45 -58q-57 -109 -95 -207q-12 -33 -12 -65q0 -92 92 -92q53 0 115 34q170 96 215 351q6 35 6 57q0 119 -86 184q-76 59 -199 60q-6 0 -34 -2q-197 -12 -383 -150q-231 -170 -301 -412q-20 -72 -21 -139q0 -139 85 -221t224 -82 q102 0 226 49q66 27 147 92q96 78 107 132q0 8 6 8h2q4 -4 4 -8v-5q-12 -53 -62 -100q-213 -203 -460 -203q-76 0 -144 23q-217 72 -217 291zM584 293q0 -18 14 -19q14 0 35 19q125 115 248 282q23 31 61 101q-8 2 -24 2q-53 0 -93 -33q-152 -127 -233 -319q-8 -19 -8 -33z " />
<glyph unicode="A" d="M45 -53q0 12 4 38.5t4 39.5q0 27 78 86q190 145 451 319q-2 2 -7 10q-10 31 -10 56q0 12 6 12q18 -10 37 -19q12 -6 51 -10q199 131 295 189q125 74 281 178q2 0 33 28q20 18 32 19q10 0 30 -2t30 -2q33 0 49 2l49 6q10 0 10 -10q0 -2 -47 -17q-18 -8 -28 -26 q-217 -379 -355 -692q-23 -51 -22 -84q0 -66 74 -66q63 0 163 66q8 4 13 4q8 0 8 -6q0 -4 -10 -11q-152 -96 -265 -96q-98 0 -98 80q0 43 86 205q55 100 111 202h-39q-242 0 -443 -20q-199 -133 -272 -188q-152 -115 -240 -224q-31 -37 -41 -71q-2 -10 -8 -11q-10 1 -10 15z M692 477q193 -14 414 -14q166 319 166 356q0 8 -6 8q-4 0 -13 -4q-115 -61 -301 -178q-158 -100 -260 -168z" />
<glyph unicode="B" horiz-adv-x="960" d="M135 -14q0 6 6 12q20 20 37 49q141 246 250 445q188 350 188 370q0 8 -12 8q-41 0 -119.5 -13t-117.5 -13q-14 0 -21 2q-12 2 -12 20q0 8 4 25q4 8 6 8q6 -2 8 -6q10 -10 82 -10q76 0 121 2q90 4 147 4q274 0 345 -88q29 -37 28 -80q0 -31 -18 -72q-68 -150 -269 -196 q-4 0 -4 -7q0 -4 4 -4q203 -35 203 -157q0 -76 -57 -154q-49 -68 -123 -111q-106 -63 -264 -63q-156 0 -246 53q-29 16 -47 17q-8 0 -21 -4q-49 -23 -73 -39q-8 -6 -15 -7q-10 1 -10 9zM313 86q0 -16 11 -31q57 -78 174 -78h12q264 6 369 242q23 51 22 90q0 63 -59 99 q-49 27 -119 28q-18 0 -54 -7t-55 -7q-31 0 -28 22q0 23 22 23q14 0 43 -6t43 -6q94 0 185 77q98 84 98 207q0 129 -184 129q-53 0 -76 -28q-80 -98 -209 -351q-90 -182 -182 -366q-11 -21 -13 -37z" />
<glyph unicode="C" horiz-adv-x="1042" d="M182 207q0 150 107 321q96 156 229 258q162 125 359 127h9q168 0 288 -71q18 -10 18 -33q0 -14 -8 -27q-25 -37 -64 -127q-6 -14 -14 -14q-6 0 -6 8q0 6 6 26.5t6 33.5q0 186 -250 186q-199 0 -407 -291q-180 -252 -181 -452q0 -170 220 -170q334 0 593 362q6 6 9 6 q8 0 8 -28q0 -25 -17 -50q-100 -147 -257.5 -228t-340.5 -81q-307 0 -307 244z" />
<glyph unicode="D" horiz-adv-x="1091" d="M133 6q0 4 38 55.5t42 59.5q74 129 223 387q188 328 189 350q0 10 -17 10q-43 0 -127 -13t-127 -13q-37 0 -37 32q0 27 11 27q-20 0 25.5 -11t60.5 -11q20 0 94 4q41 2 102 4l197 6q436 0 436 -283q0 -168 -113.5 -330.5t-269.5 -232.5q-143 -63 -325 -63q-158 0 -254 51 q-18 10 -35 10q-18 0 -59.5 -22.5t-47.5 -22.5t-6 6zM307 96q0 -12 12 -24q70 -72 213 -72q309 0 478 238q135 190 135 385q0 135 -117 200q-92 51 -237 51q-47 0 -64 -24q-233 -369 -412 -729q-8 -17 -8 -25z" />
<glyph unicode="E" horiz-adv-x="987" d="M188 63q0 37 23 78q4 8 94 166q80 139 80 144q0 8 -27 8q-18 0 -18 10t25 14q47 6 69 49q168 309 168 324q0 8 -12 8q-129 0 -197 -12q-12 -2 -22 -8l-11 -8q-6 0 -6 8q0 -2 11 37q4 12 20 12q205 -8 254 -8q20 0 307 10q57 2 115 2h35q12 0 12 -10q0 -14 -2 -17l-33 -45 q-6 0 -12 10.5t-14 12.5q-102 18 -285 18q-33 0 -49 -20q-94 -123 -215 -346q-10 -18 12 -19q70 -2 115 -2q115 0 168 4q80 6 129 27h8q8 0 8 -6l-4 -8q-6 -18 -21 -41q-6 -4 -14 -4q-164 4 -240 4q-96 0 -172 -2q-16 0 -22 -13q-90 -160 -133 -260q-20 -47 -21 -82 q0 -96 146 -96q162 0 366 55q119 33 191 80q8 4 10 4q6 0 6 -6q-18 -18 -49 -59q-14 -27 -59 -37q-266 -59 -484 -59q-111 0 -147 6q-103 16 -103 77z" />
<glyph unicode="F" horiz-adv-x="755" d="M129 25q0 14 8 28q53 90 187 324q92 166 127 231q72 139 104 240q0 6 -14 10q-37 4 -76 4q-14 0 -14 10q0 8 18 9h84q18 0 57 -2h41q88 0 240.5 29.5t155.5 29.5q8 0 8 -6q0 -4 -11.5 -21.5t-13.5 -23.5q-6 -20 -24 -21q-143 -2 -316 -10q-20 0 -35 -25 q-68 -111 -188 -348q-4 -12 -4 -14q0 -33 123 -33q137 0 254 31q4 2 10 2q10 0 10 -10q0 -35 -39 -37q-84 -4 -241 -4q-20 0 -62.5 3t-62.5 3q-18 0 -27 -16q-72 -131 -86 -160q-47 -92 -72 -166q-6 -18 -6 -31q0 -31 52.5 -40t52.5 -11q0 -10 -15 -10h-145q-80 4 -80 35z " />
<glyph unicode="G" horiz-adv-x="1095" d="M188 203q0 68 31 151q80 219 254 373q205 180 514 180q190 0 266 -76q12 -12 13 -26q-2 -6 -23 -55q-4 -10 -10 -31q-12 -29 -33 -60q-6 -6 -10 -6q-6 0 -6 9q0 4 2 10q12 16 12 37q0 84 -98 135q-82 41 -172 41q-313 0 -549 -422q-102 -184 -103 -305q0 -166 201 -166 h15q152 4 268 80q227 147 284 305q6 12 7 22q0 14 -23 15q-25 0 -71 -4t-70 -4q-18 0 -19 12q0 10 19 10h28q53 0 129 8q111 12 158 23h6q12 0 13 -6q0 -10 -15 -13q-45 -14 -63 -57q-70 -156 -139 -309q-84 -176 -181 -287q-197 -227 -428 -227q-63 0 -106 16q-10 4 -10 10 t8 6q2 0 6 -2q43 -16 102 -16q141 0 273 111q111 92 186 235q57 111 109 254q6 16 -9 16q-4 0 -10 -6q-209 -209 -452 -213h-10q-120 0 -199 49q-95 62 -95 183z" />
<glyph unicode="H" horiz-adv-x="1189" d="M121 -14q0 8 6 18q129 199 240 393q8 14 8 23q0 8 -13.5 25.5t-13.5 25.5q0 14 19 14h34q12 0 21 17q145 301 145 329q0 37 -67 37q-14 0 -45 -3t-45 -3q-12 0 -13 12q0 12 17 13q88 0 110 2q49 4 176 14q12 0 13 -12q0 -6 -4 -14q-43 -66 -82 -138q-68 -125 -125 -243 l-4 -13q0 -10 10 -10l131 -4q219 0 375 18q20 2 30 23q68 129 224 405q10 14 26 23q145 76 275 106q2 0 8 3h6q25 0 25 -11q0 -8 -21 -8q-133 0 -246 -158q-125 -176 -221 -374q-137 -287 -137 -392q0 -80 86 -79q70 0 131 41q8 4 10 4q10 0 11 -9q0 -20 -121 -53 q-82 -23 -152 -24h-4q-70 0 -70 73q0 37 13 74q8 25 57 143q45 109 45 129q0 10 -4 19q-20 31 -86 31q-227 0 -418 -29q-20 -4 -37 -31q-98 -176 -182 -360q-8 -16 -24 -21q-57 -12 -97 -30l-12 -5q-8 1 -8 9z" />
<glyph unicode="I" horiz-adv-x="446" d="M100 -29q0 8 11 11q23 2 43 30q131 182 323 563q104 207 105 254q0 23 -37 27h-23q-61 0 -98 -6q-18 -6 -18 8t18 14q72 2 154 11q115 12 143 12q16 0 16 -12q0 -6 -12 -11q-23 -6 -43 -53q-55 -125 -98 -211q-178 -358 -314 -585q-27 -45 -71 -52q6 0 -88 -6 q-11 0 -11 6z" />
<glyph unicode="J" horiz-adv-x="665" d="M-258 -172q0 41 2 86q0 10 6 12q6 -2 6 -8q14 -88 113 -113q41 -10 90 -10q63 0 113 15q205 59 467 540q164 301 249 514q2 4 3 10q0 10 -13 11q-233 0 -368 -78q-88 -51 -88 -115q0 -25 8 -41v-4q0 -6 -4 -6q-2 0 -7 6q-18 31 -18 66q0 102 139 147q94 31 322 41 q90 4 223 4q8 0 12 -10q-8 -8 -14 -8q-4 0 -12 2h-27q-8 -2 -10 -2q-14 -4 -25 -17q-31 -43 -174 -325q-117 -231 -147 -283q-94 -166 -185 -256q-233 -233 -481 -233q-96 0 -160 26q-20 9 -20 29z" />
<glyph unicode="K" horiz-adv-x="1019" d="M125 -35q0 -4 63 90q53 78 95 152q57 102 180 340q150 291 149 317q0 6 -10 6q-37 0 -107.5 -6t-107.5 -6h-2q-20 0 -20 19q0 2 2 8l16 33q4 6 10 8q2 0 3 -9.5t12 -13.5q45 -10 114 -12l53 -2q4 0 244 10q14 0 15 -10q0 -8 -11 -8q-27 -2 -73 -7q-16 0 -25 -16 q-248 -438 -436 -811l-13 -33q-8 -25 -12 -24q-2 0 -13 5t-24 5q-25 0 -60 -20l-36 -21q-6 0 -6 6zM496 422q0 8 8 12q176 100 407 254l314 209q12 8 26 8q8 0 23.5 -5t23 -6t7.5 -9q-2 0 -48 -25q-170 -90 -393 -229q-172 -109 -260 -172q-8 -6 -8 -13q0 -14 141 -182 q111 -131 168 -194q74 -80 170 -170q152 -139 260 -179q63 -23 146 -22q176 0 288 78q2 2 9 2q8 0 8 -6q-2 -4 -8 -11q-129 -84 -336 -84q-313 0 -608 330q-150 168 -334 406q-4 4 -4 8z" />
<glyph unicode="L" horiz-adv-x="929" d="M61 -12q0 25 52 24q82 0 129 58q88 106 217 372l196 404q8 16 31 24q96 37 213 37q20 0 21 -14q0 -14 -17 -14q-10 0 -29.5 3t-29.5 3q-66 0 -195 -242q-57 -111 -209 -399q-43 -82 -75 -119q-39 -41 -115 -82q-16 -8 -17 -18q0 -4 11 -5q86 4 418 31q49 4 149 4 q61 0 78 -4q33 -8 33 -37q0 -33 -8.5 -54t-18.5 -21q-6 0 -6 10q0 25 -17 31q-90 33 -282 32q-313 0 -490 -39q-6 -2 -16 -2q-23 1 -23 17z" />
<glyph unicode="M" horiz-adv-x="1619" d="M66 -59q0 23 61 96q281 336 770 762q27 23 57 47q14 12 56 33q43 12 120 26q10 0 11 -8q0 -4 -8 -8q-47 -8 -68 -51q-158 -317 -246 -688v-11q0 -14 8 -14q6 2 17 8q90 80 334 297q127 117 464 418q16 14 52 18q70 16 211 35q14 0 14 -10q0 -6 -82 -21q-49 -8 -164 -198 q-180 -297 -254 -502q-14 -39 -14 -72q0 -80 86 -80q63 0 174 56q2 2 6 2q6 0 6 -8q0 -20 -116.5 -61.5t-161.5 -41.5q-109 0 -109 84q0 29 13 64q68 188 206 430q74 125 127 250q4 8 -2 8q-4 0 -8 -4q-80 -61 -199 -170l-235 -213q-104 -96 -211 -191q-137 -127 -184 -203 q-6 -10 -70 -38q-39 -18 -43 -19q-12 0 -12 14q0 20 116 345q111 307 140 446q0 10 -4 10l-9 -4q-375 -303 -632 -612q-115 -137 -133 -221q-2 -6 -3 -15q0 -8 6 -18l5 -10q0 -10 -11 -11q-12 0 -41 23q-6 6 -28 18q-12 3 -12 13z" />
<glyph unicode="N" horiz-adv-x="1144" d="M18 -141q0 39 27 92q57 119 315 553q160 270 160 319q0 43 -49 43q-18 0 -52 -3t-52 -3q-25 0 -25 29q0 10 12 10h6q41 -12 99 -12q27 0 75 10t70 10q18 0 19 -18q6 -63 16 -103q88 -336 283 -600q16 -23 28 -22q14 0 25 20q260 506 424 754q84 127 151 127 q18 0 41 -13.5t23 -29.5q0 -4 -6 -4h-19q-96 0 -205 -154q-193 -274 -366 -665q-27 -59 -92 -209q-6 -14 -13 -15q-8 0 -18 15q-199 342 -332 721q-10 27 -22 26q-10 0 -27 -24q-285 -440 -410 -750q-43 -106 -43 -190q0 -12 -4 -13q-10 2 -24.5 43.5t-14.5 55.5z" />
<glyph unicode="O" horiz-adv-x="1171" d="M211 227q0 127 86 291q82 154 184 248q174 160 443 160q158 0 260 -58q127 -71 127 -212q0 -275 -219 -494q-215 -215 -490 -215q-391 -1 -391 280zM313 205q0 -240 273 -240q242 0 434 234q184 221 184 469q0 242 -278 241q-213 0 -367 -172q-94 -106 -166 -250 q-80 -163 -80 -282z" />
<glyph unicode="P" horiz-adv-x="923" d="M205 27q0 14 10 36q29 66 166 295q90 152 215 381q49 90 49 117q0 8 -10 8q-43 0 -128 -9t-128 -9q-39 0 -39 22q0 10 12 31q4 8 8 8q4 -2 7 -8q6 -20 120 -20q92 0 191 8q16 2 115 12q74 8 108 8q260 0 260 -184q0 -100 -86 -193q-78 -82 -180 -116.5t-195 -34.5 q-47 0 -88 16q-6 2 -6 8q2 4 8 5q12 0 41 -5.5t43 -5.5q223 0 334 215q31 59 31 131q0 145 -176 146q-106 0 -133 -45q-283 -473 -396 -694q-23 -45 -22 -74q0 -70 113 -70h30q10 0 10 -6t-10 -8q-78 -14 -174 -15q-100 1 -100 50z" />
<glyph unicode="Q" horiz-adv-x="1142" d="M143 -88q0 6 7 14q55 66 141 135q-68 74 -68 181q0 123 92 280q76 131 185 236q154 150 364 149q16 0 17 -10q0 -8 -13 -8q-4 0 -12 2h-12q-66 0 -123 -37q-264 -170 -367 -487q-29 -90 -28 -160q0 -61 20 -105q125 78 244 78q117 0 188 -78q18 -20 39 -51q6 4 27 17 q135 88 224 240.5t89 307.5q0 238 -143 269q-10 4 -10 6q2 4 10 4h41q57 -2 41 -2q37 0 57 -16q88 -74 88 -213q0 -266 -244 -504q-80 -78 -170 -123q39 -66 78 -129q47 -78 86 -121q61 -68 125 -68q123 0 215 185q6 8 10 8q8 0 9 -8q0 -6 -2 -10q-6 -12 -56 -80 q-109 -152 -235 -152q-133 0 -232 193l-75 147q-98 -33 -191 -33q-170 0 -258 82q-10 -10 -18 -14q-63 -51 -121 -123q-8 -8 -12 -8q-7 0 -7 6zM354 88q57 -100 228 -100q80 0 159 28q-31 47 -45 66q-27 33 -59 49q-39 20 -90 21q-89 -1 -193 -64z" />
<glyph unicode="R" horiz-adv-x="1069" d="M141 -31q0 10 47 78q57 82 93 139l202 330q125 203 185 328q4 12 4 16q0 8 -15 8q-111 -6 -233 -73q-80 -45 -113 -115q-4 -10 -10 -10q-8 0 -8 8q0 2 10 30.5t12 41.5q0 20 25 34q207 117 500 117q336 0 336 -164q0 -82 -82 -155q-66 -61 -156 -95q-78 -29 -170 -38 q-10 0 -10 -9q0 -2 2 -8q98 -180 231 -360q233 -315 512 -316q53 0 158 33q92 29 92 32l-2 1q6 0 6 -6q0 -8 -8 -11q-145 -74 -293 -75h-8q-220 0 -369 104q-129 90 -260 303q-49 84 -170 291q-6 10 -6 16q0 12 49 19q29 0 60 2q127 12 211 72q98 74 98 190q0 76 -66 117 q-55 35 -135 35q-49 0 -72 -27q-76 -90 -241 -379q-129 -227 -238 -434q-16 -31 -76.5 -36t-74.5 -36q-2 -6 -8 -6q-9 0 -9 8z" />
<glyph unicode="S" horiz-adv-x="686" d="M49 37q0 10 4 24q6 43 33 119q2 4 8 4t6 -10v-4q-6 -12 -6 -31q0 -80 66 -121q53 -37 137 -36q86 0 152 30q158 74 157 215q0 68 -59 146q-18 25 -64 86q-49 72 -49 143q0 109 88 211q102 119 256 119q82 0 125 -49q12 -14 12 -31q0 -12 -8 -33q-12 -27 -14 -31 q-14 -51 -25 -51q-8 0 -8 8q0 4 3 14.5t3 16.5q0 55 -53 84q-45 25 -104 25q-86 0 -139.5 -50.5t-53.5 -136.5q0 -61 39 -135q49 -66 115 -164q37 -55 37 -114q0 -86 -74 -170q-63 -72 -152 -113q-94 -43 -217 -43q-113 0 -188 37q-27 12 -27 41z" />
<glyph unicode="T" horiz-adv-x="849" d="M154 571q6 12 67 127q37 68 68 109q51 66 170 86q61 10 196 10h121l121 -2h88q113 0 213 35q137 49 137 141q0 6 -2 12.5t-2 8.5q0 8 6 8q4 0 6 -4q23 -27 37 -53q6 -8 6 -25q0 -14 -8 -29q-59 -104 -270 -110q-41 0 -139 -2q-31 -2 -43 -21q-182 -291 -367 -659 q-37 -74 -37 -119q0 -84 140 -84q8 0 20 2h20q10 0 11 -6q0 -12 -17 -12q-111 -4 -137 -4q-59 0 -82 2q-88 8 -88 69q0 31 29 80q150 256 391 741q0 10 -14 11h-64q-123 0 -209 -13q-186 -27 -282 -176q-39 -61 -62 -116q-6 -16 -16 -17q-8 0 -8 10z" />
<glyph unicode="U" d="M188 147q0 74 82 211q12 18 131 191q127 186 174 272q8 14 9 25q0 18 -31 18h-41q-68 -2 -53 -2q-10 0 -27 2h-22q-16 0 -17 13q0 12 15 12l163 -6q41 0 107 4q33 6 98 12q10 0 10 -8t-12 -10q-121 -25 -418 -543q-51 -90 -51 -168q0 -143 164 -143q152 0 303 100 q180 119 283 291q68 121 225 405q27 49 72 64q90 31 123 31q12 0 12 -13q0 -8 -8 -8q-27 -4 -43 -25q-172 -211 -312 -489q-100 -201 -100 -289q0 -94 88 -94q49 0 113 27l61 28q12 0 12 -10q0 -8 -8 -10q-147 -66 -250 -66q-135 0 -135 105q0 76 82 205v4q0 2 -2 4 q-51 0 -106 -70q-72 -92 -97 -108q-199 -131 -374 -132q-90 0 -150 39q-70 45 -70 131z" />
<glyph unicode="V" horiz-adv-x="1062" d="M209 799q0 25 119 71q94 37 184 37q139 0 139 -153q0 -90 -22 -219q-39 -225 -66 -433q0 -12 8 -12q6 0 11 4q78 70 272 248q401 377 567 619q37 53 37 83q0 6 -4 15v10q0 8 6 8q8 0 17 -6q39 -29 39 -70q0 -18 -9 -32q-29 -49 -159 -181q-272 -270 -482 -464 q-55 -51 -165.5 -157t-147.5 -169q-10 -18 -39 -25.5t-53 -15.5q-37 -10 -47 -10q-8 0 -8 8t11 33.5t13 29.5q88 285 117 580q4 43 4 55q0 49 -8 82q-31 121 -150 121q-102 0 -162 -59q-8 -8 -12 -9q-10 1 -10 11z" />
<glyph unicode="W" horiz-adv-x="1576" d="M172 -37q0 6 2 10q29 53 74 166q35 84 123 346q96 287 100 330q2 31 -31 31q-18 0 -55 -8.5t-51 -8.5q-10 0 -10 9q0 8 10 10q117 23 235 47q6 2 39 10q4 2 8 2q10 0 11 -8q0 -6 -6 -12q-20 -18 -70 -152q-104 -285 -201 -616v-4q0 -6 4 -6t11 4q260 250 786 749 q6 6 14 6q16 0 17 -12q0 -8 -11 -12q-16 -8 -20 -35q-27 -211 -27 -393v-101q0 -131 2 -211q0 -14 9 -14q2 0 8 8q178 209 346 402q236 268 420 432q109 96 176 96q45 0 72 -24q4 -2 4 -9q0 -6 -9 -6q-4 0 -12 2h-14q-86 0 -246 -135q-184 -156 -377 -369 q-258 -287 -370 -473q-10 -18 -50 -32q-51 -16 -57 -23q-12 -6 -14 -6q-12 0 -13 12q8 18 17 62q23 297 22 649q0 29 -14 29q-6 0 -20 -11q-469 -432 -701 -696q-16 -18 -37 -21q-33 -6 -37 -8q-35 -14 -49 -14q-8 0 -8 8z" />
<glyph unicode="X" horiz-adv-x="1097" d="M10 -92q0 16 4 26q27 72 226 216q244 176 460 317q-37 229 -41 244q-47 156 -151 155q-100 0 -186 -57q-8 -4 -11 -4q-6 0 -6 6t8 12q154 84 310 84q125 0 143 -180q6 -63 25 -201q289 197 550 400q6 6 7 12q0 2 -3.5 6t-3.5 8q0 6 9 6q12 0 26.5 -23.5t14.5 -37.5 q0 -16 -15 -25q-285 -172 -583 -366q37 -260 43 -283q47 -199 147 -198q70 0 172 79q2 2 8 2t6 -6q-2 -8 -6 -10q-158 -123 -276 -123q-119 0 -146 209q-18 147 -36 268q-129 -86 -248 -172q-154 -109 -219 -163q-133 -111 -181 -197q-10 -18 -10 -35v-8q0 -6 -6 -6 q-31 0 -31 45z" />
<glyph unicode="Y" horiz-adv-x="935" d="M168 713q0 6 4 12q115 174 297 174q125 0 190.5 -74.5t65.5 -199.5q0 -102 -14 -170q-2 -14 8 -15q6 0 10 4l88 82l148 140q186 176 239 221q190 162 264 162q25 0 55.5 -15.5t30.5 -38.5q0 -6 -4 -6t-17 3t-22 3q-63 0 -182 -71q-276 -166 -569 -500q-35 -39 -66 -102 q-51 -104 -88 -209q-10 -33 -18 -66q-16 -53 -31 -49q-16 4 -31 4q-66 0 -96 -41q-2 -4 -10 -4q-12 0 -12 12q0 -8 43 56q188 279 188 514q0 301 -248 301q-90 0 -151 -60q-25 -33 -58 -71q-4 -2 -8 -2q-6 0 -6 6z" />
<glyph unicode="Z" horiz-adv-x="946" d="M43 -6q0 8 14 8q53 0 95 35q156 129 454 397q264 236 393 389q16 18 17 29q0 16 -41 16q-231 0 -416 -20q-127 -14 -172 -57q-8 -8 -14 -9q-4 0 -4 13q10 37 32 59q6 8 35 16q106 8 350 15l422 8q18 0 19 -10q0 -2 -29 -21.5t-31 -21.5q-135 -117 -438 -396 q-229 -211 -426 -419q-10 -14 -10 -21q0 -12 18 -18q244 -76 607 -133q51 -8 108 -9q303 0 365 283q2 12 10 12q6 0 6 -10v-6q-29 -135 -100 -217q-86 -96 -213 -96q-121 0 -500 79q-174 37 -275 56q-150 29 -262 37q-14 2 -14 12z" />
<glyph unicode="[" horiz-adv-x="692" d="M20 -111q0 20 39 60q354 618 564 1036q2 4 6 29q2 14 14 14q20 0 58 -2t59 -2q27 0 78 2t77 2h3q12 0 12 -8t-12 -8h-72q-80 0 -66 0q-45 -2 -57 -23q-264 -455 -563 -1048q-6 -12 -6 -21q0 -20 28 -20h66q57 0 127 2q16 0 16 -13q0 -10 -16 -10h-80q-16 0 -47 2h-35h-37 q-33 -2 -51 -2h-90q-15 0 -15 10z" />
<glyph unicode="\" horiz-adv-x="753" d="M369 1122q0 14 16 15q10 0 25 -21q2 -4 219 -708q219 -711 219 -730q0 -14 -14 -14t-25 17z" />
<glyph unicode="]" horiz-adv-x="720" d="M164 -111q0 12 12 13h80q98 0 72 -2q51 4 63 24q264 455 561 1045q6 12 6 20q0 20 -28 21h-25q-25 0 -72 -3t-69 -3q-16 0 -16 10t16 10h57q41 0 121 2t121 2q16 0 16 -10q-12 -18 -39 -60q-293 -524 -542 -1036l-6 -26q-2 -16 -15 -17q-20 0 -63 2t-64 2q-29 0 -87 -2 t-87 -2q-12 0 -12 10z" />
<glyph unicode="^" horiz-adv-x="819" d="M340 543l207 411h51l209 -411h-64l-170 338l-172 -338h-61z" />
<glyph unicode="_" horiz-adv-x="1024" d="M0 0h1024v-102h-1024v102z" />
<glyph unicode="`" horiz-adv-x="471" d="M186 741q0 12 11 25q6 6 10 6q6 0 8 -8q33 -76 86 -232v-4q0 -4 -2 -4t-6 4q-61 113 -100 191q-7 12 -7 22z" />
<glyph unicode="a" horiz-adv-x="518" d="M82 63q0 20 10 52q63 186 225 276q68 37 129 43h13q31 51 84 51q-16 -29 -29 -53q27 -2 57 -18q-2 -4 -6 -4q-2 0 -2 2h-4q-16 2 -53 4q-14 -27 -66 -135q-76 -160 -75 -222q0 -47 41 -47q16 0 30 6q154 61 287 265q4 8 10 8t6 -6q0 -4 -4 -11q-61 -90 -155 -176 q-123 -111 -199 -110q-78 0 -78 92q0 39 19 88q-123 -152 -197 -152q-43 0 -43 47zM154 70q0 -18 12 -19q8 0 22 10q92 68 193 240l68 117h-3q-57 0 -108 -43q-121 -102 -180 -283q-4 -20 -4 -22z" />
<glyph unicode="b" horiz-adv-x="544" d="M131 70q0 100 131 338q307 557 569 800q186 174 293 174q59 0 74 -49q4 -10 4 -33q0 -31 -8 -43q-4 -4 -8 -4q-8 0 -8 9q0 2 2 4v4q0 20 -35 30q-20 6 -43 7h-19q-115 0 -235.5 -107.5t-298.5 -404.5q-281 -469 -334 -689q-6 -27 -6 -38q0 -55 37 -56q37 0 82 58 q88 113 88 254v2q0 33 -10 53q-2 2 -3 8q0 14 15 29q45 45 47 45q10 0 10 -15v-16q0 -59 45 -94t107 -35q47 0 108 27l60 24q6 0 6 -4q0 -8 -8 -10q-137 -74 -232 -74q-80 0 -108 55q-2 -113 -66 -215q-74 -119 -180 -118q-76 0 -76 84z" />
<glyph unicode="c" horiz-adv-x="417" d="M100 80q0 35 19 80q84 207 272 286q25 10 39 11q49 0 72 -56q4 -10 4 -14q0 -10 -19 -27q-27 -25 -28 -26q-8 -8 -15 -8q-6 0 -6 8v4q2 6 2 16q0 53 -65 54q-74 0 -144 -136q-45 -88 -45 -147v-23q0 -86 76 -86q80 0 201 103q88 74 162 166q6 6 10 6q6 0 6 -4 q-2 -8 -6 -13q-170 -209 -316 -266q-68 -27 -110 -26q-109 0 -109 98z" />
<glyph unicode="d" horiz-adv-x="567" d="M80 72q0 39 33 92q147 242 376 282q393 707 697 852q63 31 112 31q51 0 52 -20q0 -4 -12.5 -26.5t-14.5 -29.5q-4 -14 -14 -14q-4 0 -13 4q-31 16 -69 17q-72 0 -125 -35q-94 -61 -213 -234q-330 -473 -506 -907q-23 -55 -23 -98q0 -51 41 -52q33 0 88 33q137 82 271 303 q4 6 8 6q6 0 6 -6q0 -2 -2 -8q-135 -219 -272 -309q-68 -45 -119 -45q-76 0 -76 94q0 74 82 254q-68 -82 -166 -182q-47 -49 -96 -49q-45 0 -45 47zM170 88q0 -14 10 -14t19 8q82 68 202 221q51 66 74 117q-104 -6 -176 -94q-129 -158 -129 -238z" />
<glyph unicode="e" horiz-adv-x="419" d="M90 63q0 27 4 46q23 106 113 213q102 123 201 122q61 0 61 -36q0 -84 -250 -142q-47 -88 -47 -168q0 -84 76 -84q88 0 194 78q88 63 154 150q2 6 10 6q6 0 6 -6q0 -4 -4 -9q-78 -98 -188 -172q-127 -84 -234 -84q-96 0 -96 86zM227 281q145 29 164 104q0 2 2 6v4 q0 23 -18 25q-2 0 -2 2h-4q-23 0 -52 -25q-51 -44 -90 -116z" />
<glyph unicode="f" horiz-adv-x="391" d="M-1438 -1063q0 8 4 8q6 -2 9 -12q20 -143 206 -143q260 0 547 235q213 176 408 453q156 223 362 610q84 160 170 313q-135 0 -168 -8h-2q0 -2 -2 -2q-6 0 -6 6q0 29 111 29h24q16 -2 23 -2h33q205 369 401 668q287 434 500 434h8q92 0 92 -45v-8q-14 -74 -18 -164 q0 -8 -9 -9q-6 0 -6 7v2q0 10 3 29.5t3 29.5q0 33 -12 41q-47 35 -104 35h-15q-178 0 -391 -320q-70 -106 -289 -542q-12 -25 -79 -154h90h96q20 0 55 -2h41q8 0 8 -6l-2 -6q-4 -4 -174 -8q-90 -2 -121 -3h-4q-317 -602 -575 -931q-549 -702 -996 -703q-190 0 -221 162v6z " />
<glyph unicode="g" horiz-adv-x="501" d="M-1114 -758q0 43 14 82q4 10 10 10q4 -2 5 -6v-6q-12 -37 -13 -76q0 -123 109 -209q96 -78 248 -77q365 0 680 477q129 197 329 594q57 115 101 190q-70 -90 -160 -190q-47 -53 -92 -54q-43 0 -43 52q0 25 12 59q43 123 147 236q121 133 236 133q14 0 23 -2q43 70 69 118 q14 27 27 27q23 0 22 -53q0 -18 -10 -37q-135 -250 -276 -492q-100 -168 -351 -589q-147 -250 -272 -361q-168 -147 -383 -147q-203 0 -324 98q-108 90 -108 223zM158 45q0 -16 10 -16q12 0 37 26q135 147 270 371q-4 0 -10 2h-10q-68 0 -101 -27q-137 -113 -192 -335 q-4 -17 -4 -21z" />
<glyph unicode="h" horiz-adv-x="557" d="M51 8q0 10 6 23q344 637 693 1093q283 373 514 373q76 0 127 -37t53 -110q0 -27 -6 -72q-2 -8 -6 -8q-6 2 -7 6q-2 70 -67 110q-55 35 -129 35q-221 0 -467 -313q-229 -293 -481 -801q55 49 112 90q86 59 127 60q18 0 19 -15q0 -12 -19 -36q-88 -123 -145 -279 q-12 -33 -13 -59q0 -66 62 -66q70 0 184 107q92 86 146 163q2 4 8 4q4 0 4 -4t-4 -10q-121 -168 -252 -248q-94 -57 -156 -57q-72 0 -71 74q0 57 45 139q57 102 94 190q8 18 8 23q0 6 -6 6q-4 0 -25 -12q-86 -53 -161 -156q-41 -86 -66 -133q-53 -104 -84 -104q-16 0 -31 10 q-6 6 -6 14z" />
<glyph unicode="i" horiz-adv-x="370" d="M94 61q0 31 23 82q57 129 145 256q20 31 55 37q2 0 5 2h2q14 0 14 -12q0 -8 -6 -18q-111 -174 -148 -306q-6 -23 -6 -34q0 -47 49 -48q41 0 92 29q145 80 248 221q6 6 8 6q4 -2 5 -6q0 -4 -5 -10q-98 -127 -229 -213q-84 -55 -162 -55q-90 -1 -90 69zM389 676 q0 27 20.5 51.5t47.5 24.5t26 -27q0 -25 -22.5 -49.5t-46.5 -24.5q-25 0 -25 25z" />
<glyph unicode="j" horiz-adv-x="401" d="M-375 -668q0 14 8 31q31 43 121 123q78 70 117 139q162 289 369 737q8 18 8 29q0 18 -17 19q-10 0 -35.5 -6.5t-35.5 -8.5q-8 0 -8 8q0 6 10 11q92 16 157 45q6 4 19 4q20 0 20 -23q0 -12 -8 -28q-94 -190 -250 -475l-227 -369q250 215 322 280q190 178 280 314 q49 74 49 133q0 31 -12 45l-4 8q0 4 4 4q37 0 37 -86q0 -102 -121 -217q-190 -182 -537 -495q-41 -37 -114 -136q-70 -90 -119 -131q-4 -4 -12 -4q-21 0 -21 49zM373 676q0 27 20.5 51.5t46.5 24.5q27 0 27 -27q0 -25 -22.5 -49.5t-47.5 -24.5q-24 0 -24 25z" />
<glyph unicode="k" horiz-adv-x="620" d="M39 8q0 6 8 23q59 90 154 256q104 188 149 260q176 283 349 482.5t325 236.5q51 12 78 12q41 0 72 -18q39 -23 38 -60q0 -16 -12 -49t-13 -45t-9 -12q-6 0 -7 8q0 4 2.5 11t2.5 11q0 47 -40 71t-89 24q-143 0 -271 -134q-143 -152 -287 -387q-172 -285 -325 -565 q-4 -12 -2 -12t8 6q45 45 160 147q-2 8 -2 25v4q0 14 14 21q53 23 51 24q10 0 13 -8q111 94 223 178q14 10 20 10q23 0 23 -26q0 -12 -21 -19q-88 -27 -248 -168q-2 -8 -2 -24q0 -18 11 -72q39 -205 120 -205q109 0 283 258q2 6 8 7q8 0 8 -9q0 -2 -2 -6 q-219 -295 -354 -295q-63 0 -100 101q-16 45 -41 184q-57 -53 -129 -143q-80 -98 -117 -140q-4 -6 -12 -6t-13 4q-24 25 -24 39z" />
<glyph unicode="l" horiz-adv-x="419" d="M90 66q0 59 41 131q59 96 213 360l25 43q135 236 256 424q76 119 166 195q106 90 202 129q14 6 29 6q37 0 37 -37q0 -68 -90 -215q-215 -352 -514 -555q-31 -16 -88 -51q-195 -324 -195 -426q0 -66 59 -66q53 0 140 47q131 72 241 221q8 8 11 9q6 0 6 -7q-2 -6 -6 -10 q-90 -111 -191 -188q-135 -102 -244 -103q-98 1 -98 93zM383 522q35 20 68 43q293 211 448 506q45 86 64 174q2 6 2 19q0 33 -25 32q-20 0 -45 -24q-90 -90 -252 -344q-66 -100 -231 -359q-15 -27 -29 -47z" />
<glyph unicode="m" horiz-adv-x="729" d="M68 41q0 16 6 27q86 143 200 348q10 18 23 18q27 0 27 -31q0 -6 -7 -20q-25 -57 -71 -147l-2 -7l4 4q102 102 172 148q16 10 31 10q27 0 26 -29q0 -8 -29.5 -73.5t-31.5 -67.5q0 -2 2 -2t6 4q68 74 168 148q45 33 72 32q33 0 32 -30q0 -4 -86 -178q-27 -53 -51 -138 q-6 -20 -6 -37q0 -41 35 -40q16 0 39 10q129 57 256 219q8 10 14 10q4 0 4 -6q0 -4 -6 -14q-211 -244 -336 -244q-76 0 -76 74q0 29 13 59q35 63 104 215q4 8 4 21q0 12 -10 12q-6 0 -25 -10q-61 -35 -120 -101q-27 -29 -74 -94q-14 -31 -51 -88q-10 -12 -19 -12 q-8 0 -17 11t-9 19q0 16 8 29q78 119 98 207q0 -4 2 10q0 12 -8 12q-6 0 -12 -6q-121 -84 -215 -231q-14 -20 -50 -76q-8 -8 -14 -8q-20 0 -20 43z" />
<glyph unicode="n" horiz-adv-x="542" d="M47 23q0 14 10 32q37 53 107 164q43 90 110 215q6 10 17 10q8 0 20.5 -10t12.5 -18q0 1 -1 1q-5 0 -77 -165q135 121 256 197q8 4 12 4q25 0 25 -23q0 -10 -11 -24q-119 -176 -168 -314q-8 -23 -8 -39q0 -51 49 -51q25 0 58 16q168 86 280 258q2 4 9 5q6 0 6 -7 q0 -4 -4 -10q-121 -166 -275 -256q-84 -49 -143 -49q-63 0 -64 59q0 45 43 119q80 137 107 213v6q0 6 -4 6q-2 0 -8 -2q-109 -72 -189 -163q-39 -74 -131 -215q-10 -10 -14 -11q-8 0 -16.5 21t-8.5 31z" />
<glyph unicode="o" horiz-adv-x="524" d="M90 61q0 111 121 256q86 104 217 119q6 57 41 64q16 2 39 10q2 2 6 2q10 0 10 -10q-12 -31 -26 -80q-4 -29 -4 -55q0 -131 96 -131q94 0 172 110q2 6 8 6q4 -2 4 -6q0 -2 -2 -6q-92 -125 -199 -125q-82 0 -122 70q-119 -233 -240 -291q-35 -16 -61 -17q-60 0 -60 84z M188 8q6 0 17 4q68 33 137 138q57 86 92 176q-8 27 -8 71v19q-4 2 -10 2q-88 -2 -189 -174q-68 -115 -67 -192q-1 -44 28 -44z" />
<glyph unicode="p" horiz-adv-x="450" d="M-729 -1061q0 8 10 12q96 41 160 99q51 49 115 149q84 131 462 774q-12 6 -12 23q0 12 35 18l94 154q33 61 123 219q57 100 143 207q20 25 91 24q12 0 12 -8q-2 -6 -6 -10q-141 -133 -238 -278q123 129 182 129q47 0 47 -54q0 -14 -6 -32q-72 -209 -356 -345q4 0 29 5 q338 47 524 286q2 4 10 4q6 0 6 -6q0 -2 -4 -6q-190 -244 -491 -301q-2 -2 -150 -29q-66 -113 -221 -397q-76 -150 -279 -530q-25 -45 -143 -78q-63 -18 -127 -35h-2q-8 0 -8 6zM76 16q219 100 301 254q29 53 29 86q0 31 -25 31q-35 0 -98 -61q-51 -49 -78 -90 q-10 -17 -129 -220z" />
<glyph unicode="q" horiz-adv-x="534" d="M-373 -1006q0 51 54 142q154 260 595 962q-86 -104 -163 -104q-51 0 -52 55q0 33 17 68q49 104 143 196q109 102 209 117q27 4 53 4q78 131 129 211q31 49 47 49q18 0 19 -18q0 -4 -4 -10q-61 -115 -146 -238q74 -16 74 -72q0 -10 -4 -10q-10 0 -18 19q-14 33 -64 47 q-6 -10 -33 -47q-154 -215 -295 -449q-170 -281 -219 -369q-133 -236 -213 -413q-27 -59 -26 -95q0 -31 22 -30q37 0 103 76q166 190 477 641q123 178 416 581q4 4 6 4q8 0 8 -8q0 -4 -4 -10q-104 -139 -414 -580l-221 -315q-315 -451 -453 -451q-43 0 -43 47zM127 41 q0 -18 14 -18t49 20q106 63 234 287q2 4 47 88q-100 0 -209 -135q-80 -100 -121 -193q-14 -31 -14 -49z" />
<glyph unicode="r" horiz-adv-x="434" d="M49 20q0 12 14 37q29 51 101 179q49 86 110 194q8 16 19 16q33 0 33 -36q0 -8 -54 -101q-4 -10 -2 -10q6 2 11 6q43 45 108 88q80 53 125 53t45 -28q0 -2 -20.5 -34t-22.5 -37t-10 -5q-2 0 -6 4q-18 35 -68 35q-90 0 -205 -168q-49 -72 -145 -217q-2 -6 -12 -6 q-21 -1 -21 30z" />
<glyph unicode="s" horiz-adv-x="385" d="M-4 37v4q0 23 45 59q4 4 12 4q2 0 2 -4l-4 -10q-4 -10 -4 -20q0 -18 19 -56q27 -53 92 -53q133 0 157 197q0 12 11 170q2 47 65.5 107.5t108.5 60.5q31 0 30 -23q0 -6 -6 -16q-8 -18 -24 -19q-6 0 -19.5 4t-21.5 4q-47 0 -60 -79q-2 -14 -6 -115q-6 -170 -82 -238 q-84 -74 -172 -73q-43 0 -88 25.5t-53 64.5q0 2 -2 6z" />
<glyph unicode="t" horiz-adv-x="407" d="M127 84q0 78 127 307l-96 -6q-18 0 -19 10q0 29 49 29h84q61 109 156 252q23 35 51 49q72 37 101 37q6 0 6 -8q0 -4 -6 -9q-47 -14 -68 -43q-98 -137 -176 -278q72 0 235 4q6 -2 11 -8q-4 -12 -11 -12q-121 -2 -249 -13q-55 -104 -95 -211q-16 -45 -16 -86q0 -72 68 -71 q57 0 163 61q2 2 9 2q6 0 6 -6q-2 -6 -6 -8q-133 -86 -226 -86q-98 0 -98 94z" />
<glyph unicode="u" horiz-adv-x="524" d="M113 61q0 27 12 60q53 143 156 303q12 18 30 18q35 0 35 -26q0 -8 -94 -172q-82 -141 -82 -185q0 -31 25 -30q25 0 57 32q70 70 137 201q39 76 76 135q8 14 16 15q8 0 17 -11q18 -25 18 -47q0 -27 -39 -78q-20 -25 -57 -73q-68 -94 -68 -195q0 -45 37 -45q78 0 215 133 q80 78 133 158q2 6 8 6t7 -8l-4 -8q-217 -301 -379 -301q-70 0 -70 75q0 39 20 93q-84 -109 -153 -109q-53 0 -53 59z" />
<glyph unicode="v" horiz-adv-x="552" d="M119 -43l55 27q55 29 55 90q0 20 -32 147q-6 25 -7 49q0 76 99 121q2 2 6 2q6 0 6 -6q-2 -6 -6 -8q-35 -29 -35 -80v3q2 0 21 -142q2 -68 -31 -123q-6 -10 -6 -14q0 -6 4 -7q4 0 12 9q168 90 242 235q31 61 30 121q0 129 -86 135q-12 0 -12 8q2 6 10 8q27 8 41 9 q47 0 77 -34t30 -81q0 -43 -27 -100q-123 -262 -377 -404q-10 -6 -18 -6q-10 0 -30.5 15.5t-20.5 25.5z" />
<glyph unicode="w" horiz-adv-x="714" d="M98 61q0 55 117 273q45 84 127 108h6q6 0 6 -4q-2 -6 -4 -10q-123 -141 -166 -307q-6 -25 -6 -39q0 -29 19 -29q70 0 186 195q61 143 96 143q10 0 15 -4q16 -10 16 -29q0 -16 -12 -34q-74 -115 -105 -215q-6 -20 -6 -37q0 -47 43 -47q88 0 158 141q49 98 59 201 q-20 51 -20 84q0 49 49 49q14 0 14 -13q12 -219 133 -219q78 0 168 109q2 4 8 4t7 -6q0 -4 -5 -8q-98 -117 -200 -117q-72 0 -123 63q-55 -207 -176 -282q-51 -33 -94 -33q-76 0 -76 90q0 37 10 68q-117 -152 -197 -152q-47 0 -47 57z" />
<glyph unicode="x" horiz-adv-x="561" d="M-219 -446q0 10 14 32q72 111 205 260q84 94 190 213v21q0 43 5 76q14 117 61 231q12 31 84 72q2 2 4 2q6 0 6 -6q0 -2 -2 -9q-76 -137 -82 -307q195 203 314 312q6 6 12 6t6 -11v-8q-6 -27 -20 -39q-182 -150 -314 -286v-13q0 -166 115 -166q49 0 113 37q133 76 227 219 q6 6 8 7q6 -2 6 -7l-4 -8q-72 -104 -178 -188q-131 -104 -232 -105q-111 0 -126 146q-201 -217 -314 -414q-37 -66 -53 -131q-2 -12 -8 -12q-8 0 -13 14q-24 70 -24 62z" />
<glyph unicode="y" horiz-adv-x="475" d="M-791 -733q0 8 7 57q2 8 6 8t4 -6q2 -70 67 -110q57 -35 132 -35q221 0 466 315q133 170 218 307l172 279q2 2 2 4h-2q-2 0 -7 -2q-66 -53 -122 -53q-57 0 -58 47q0 18 10 43q23 53 95 164q2 4 53 82q12 18 24.5 21t25.5 6t17 3q8 0 9 -6q0 -4 -4 -10 q-41 -63 -98.5 -160.5t-57.5 -140.5q0 -23 20 -23q39 0 91 45q23 20 45 62q31 59 110 201q59 106 82 106q2 0 5 -11t10.5 -18.5t7.5 -19.5t-7 -23q-57 -100 -135 -192q-51 -61 -135 -197q-440 -715 -678 -848q-98 -55 -194 -55q-181 0 -181 160z" />
<glyph unicode="z" horiz-adv-x="532" d="M-29 0q0 10 9 12q209 100 456 305q4 4 4 7q-2 6 -6 6h-2q0 -2 -2 -2q-74 -25 -117 -25q-84 0 -84 64q0 25 25 62.5t47 37.5q10 0 10 -10v-2q-2 0 -2 -2q-10 -27 -10 -45q0 -74 84 -74q51 0 113 41q27 18 79 65q4 4 13 4q12 0 12 -10t-10 -18q-139 -113 -432 -334 q-10 -6 -11 -12q0 -4 11 -11q184 -111 297 -176q276 -160 399 -159q182 0 289 204q2 6 10 6q4 -2 4 -6v-4q-6 -33 -27 -63q-104 -160 -321 -160q-61 0 -129 16q-219 53 -461 213q-68 45 -137 99q-6 6 -12 6t-78 -47q-2 -2 -8 -2q-13 0 -13 14z" />
<glyph unicode="{" horiz-adv-x="542" d="M106 -76q0 57 56 148q31 45 90 137q109 166 108 209q0 45 -65 57h-10q-10 0 -36 -6t-38 -6q-25 0 -25 16l11 13q8 12 22 12q8 0 26.5 -4t28.5 -4q49 0 88 28q63 49 121 138l95 159q57 94 96 129q59 55 147 66q51 6 72 6h16q14 0 15 -10v-4q-2 -6 -13 -7q-4 0 -15 3.5 t-17 3.5q-63 0 -144 -90q-90 -119 -178 -240q-117 -150 -215 -184q-8 -2 -8 -9q0 -2 4 -6q47 -23 47 -78q0 -51 -70 -184q-29 -51 -84 -156q-49 -96 -49 -163q0 -88 74 -88q12 0 12 -9q0 -8 -14 -8q-59 0 -103.5 36t-44.5 95z" />
<glyph unicode="|" horiz-adv-x="454" d="M303 -512v2048h62v-2048h-62z" />
<glyph unicode="}" horiz-adv-x="542" d="M-84 -203q0 6 12 8q156 29 299 281q23 41 82 141q82 135 207 209q8 4 8 10t-10 11q-43 18 -43 71q0 35 18 74q33 55 93 156q76 129 75 180q0 51 -53 61q-14 2 -14 11q0 10 12 10q35 0 61.5 -34t34.5 -73q4 -18 4 -34q0 -66 -96 -211q-43 -66 -88 -144q-8 -14 -8 -32 q0 -20 20 -21q12 0 44 6t44 8q14 0 15 -16q0 -31 -27 -31q-57 0 -84 -18q-74 -51 -119 -146q-113 -231 -180 -311q-57 -68 -133 -115q-90 -57 -164 -57q-10 0 -10 6z" />
<glyph unicode="~" horiz-adv-x="819" d="M299 254q51 96 141 96q45 0 125 -35q94 -41 115 -41q45 0 98 82l41 -41q-72 -96 -141 -96q-43 0 -120 39t-124 39q-61 0 -94 -84z" />
<glyph unicode="&#xa1;" horiz-adv-x="450" d="M-14 -330q0 8 6 8h6q23 0 43 17q127 104 340 588q2 6 8 6q10 0 10 -8l-2 -2q-127 -360 -233 -568q-33 -63 -98 -63q-43 0 -76 14q-4 2 -4 8zM377 424q0 70 65 70q39 0 39 -37q0 -82 -61 -82q-43 0 -43 49z" />
<glyph unicode="&#xa2;" horiz-adv-x="696" d="M80 -334q0 10 2 17q25 63 51 118q72 143 143 271h-24q-119 0 -119 96q0 74 68 194q111 195 270 302q90 59 184 59h19q12 18 123 178q14 20 34 41l9 4q6 -2 6 -6v-4q-2 -2 -2 -4q-8 -33 -66 -109q-41 -53 -82 -104q76 -23 86 -82q4 -18 -12 -25q-8 -4 -41 -43q-4 -4 -8 -4 t-6 15q-6 29 -45 63q-6 6 -19 12q-160 -227 -332 -540q147 -16 400 235q6 6 10 6q4 -2 4 -6t-4 -10q-84 -119 -293 -219q-68 -33 -137 -45q-35 -63 -117 -230q-51 -104 -69 -192v-6q-2 -4 -2 -6q0 -12 4 -25q0 -10 -4 -10q-6 2 -9 6q-10 14 -20 37q-2 4 -2 16zM227 209 q0 -78 74 -92q156 279 332 547q-31 10 -60 10q-53 0 -94 -27q-84 -55 -155 -168q-97 -151 -97 -270z" />
<glyph unicode="&#xa3;" horiz-adv-x="944" d="M4 -14q0 18 12 30q49 51 177 140q111 78 188 225l25 47q-66 -4 -97 -8q-8 -2 -24 -2q-39 0 -39 18q0 10 14 10h23q14 -2 22 -2q-16 0 43 2h43h25q66 119 106 175q174 240 373 239q84 0 84 -39q0 -6 -23 -76q-4 -10 -8 -10t-6 10q-23 66 -133 66q-143 0 -256 -199 q-43 -78 -96 -166q45 0 136 6.5t136 6.5h4q33 0 33 -25q0 -12 -14 -12h-17q-37 0 -111.5 5t-111.5 5h-33q-20 -2 -33 -2q-29 -49 -135 -143q-70 -61 -69 -117q0 -2 4 -2h2q35 8 78 8q68 0 133 -24q23 -8 172 -109q86 -57 149 -57q72 0 142 69q31 31 39 56q2 8 8 8t6 -6v-7 q-33 -78 -170 -165q-35 -23 -76 -23q-86 0 -231 129q-18 16 -64 55q-70 57 -162 58q-41 0 -72.5 -23.5t-162.5 -171.5q-6 -6 -12 -6q-21 0 -21 27z" />
<glyph unicode="&#xa4;" horiz-adv-x="796" d="M283 193l73 75q-74 90 -73 209q0 119 73 209l-73 76l51 51l74 -76q92 76 210 76q117 0 209 -76l74 76l51 -51l-73 -76q74 -86 73 -209q0 -123 -73 -209l73 -75l-51 -52l-74 76q-92 -76 -209 -76q-119 0 -210 76l-74 -76zM344 477q0 -117 80 -199.5t194 -82.5 q115 0 194 83.5t79 198.5t-79 199t-194 84t-194.5 -83t-79.5 -200z" />
<glyph unicode="&#xa5;" horiz-adv-x="839" d="M168 686q0 4 2 8q104 160 301 160q82 0 138.5 -55.5t56.5 -136.5q0 -37 -20.5 -109t-20.5 -100q0 -6 4 -7q6 2 14 11q219 227 406 366q76 57 135 105q8 8 16 8q6 0 22.5 -12.5t16.5 -16.5q0 -8 -14 -18q-66 -41 -230 -152q-156 -109 -333 -286q-6 -6 -7 -11q0 -4 9 -4 q27 0 81 3t80 3q12 0 13 -8q0 -14 -21 -14q-96 0 -174 -2q-18 0 -53 -80v-4q-2 -2 -2 -4q0 -4 10 -4h2q29 0 85 3t85 3q12 0 12 -8q0 -14 -16 -15q-76 0 -174 -4q-16 0 -23 -14q-25 -51 -110 -230q-6 -8 -6 -18q0 -14 28 -18h17q10 -2 16 -2q12 0 34.5 2t35.5 2h2 q14 0 14 -15q0 -10 -12 -10h-2q-14 0 -44 2t-44 2q-72 0 -234 -20q-4 0 -10 -2h-10q-29 0 -29 16q0 12 23 12h26q16 -2 27 -2q53 0 88 53q49 74 117 216l4 12q0 8 -15 8h-2q-51 0 -178 -16h-6q-12 0 -12 6q2 8 6 10q14 12 207 20q16 0 24 19q16 37 25 63v5q0 6 -10 6h-2 q-47 0 -158 -15h-8q-12 0 -13 9q0 23 35 22h31q84 0 119 4q18 2 24 23q20 72 21 125q0 55 -19 104q-47 123 -182 123q-137 0 -203 -121q-4 -6 -10 -8q-6 0 -6 8z" />
<glyph unicode="&#xa6;" horiz-adv-x="454" d="M426 -358v716h61v-716h-61zM426 666v716h61v-716h-61z" />
<glyph unicode="&#xa7;" horiz-adv-x="616" d="M-74 -6q0 72 19 110q4 6 8 9q4 -2 4 -9v-4q-10 -51 -10 -67q0 -18 6 -39q35 -115 168 -137q37 -6 63 -7q162 0 217 123q12 27 13 60q0 68 -98.5 186.5t-98.5 173.5q0 37 19 74q41 80 120 119q8 80 58.5 141t128.5 86q39 12 67 12q92 0 92 -53q0 -14 -32 -76q-4 -8 -8 -8 q-8 0 -9 10v2q2 4 2 15q0 29 -33.5 46t-66.5 17q-61 0 -109.5 -45t-48.5 -106q0 -70 70 -168q80 -113 80 -189q0 -92 -86 -178q0 -154 -156 -242q-94 -51 -188 -51h-6q-80 0 -132.5 49.5t-52.5 128.5v17zM276 463q0 -57 68 -150l72 -98q35 -53 43 -102q55 49 55 118 q0 51 -25 95q-43 57 -90 127q-35 51 -43 112q-80 -30 -80 -102z" />
<glyph unicode="&#xa8;" horiz-adv-x="471" d="M117 676q0 27 20.5 51.5t46.5 24.5q27 0 27 -27q0 -25 -22.5 -49.5t-47.5 -24.5q-24 0 -24 25zM264 664q0 27 20.5 51t47.5 24t26 -26q0 -25 -22.5 -49.5t-46.5 -24.5q-25 0 -25 25z" />
<glyph unicode="&#xa9;" horiz-adv-x="1161" d="M229 301q0 254 193.5 437.5t447.5 183.5q178 0 282.5 -93.5t104.5 -269.5q0 -258 -193.5 -435t-453.5 -177q-166 0 -270 92q-111 98 -111 262zM285 305q0 -147 102 -241.5t252 -94.5q250 0 407.5 172t157.5 424q0 162 -91 250t-255 88q-240 0 -406.5 -178t-166.5 -420z M465 342q0 162 105.5 285t265.5 123q168 0 188 -132l-55 -28q-12 133 -131 133q-137 0 -232 -131q-84 -119 -84 -262q0 -82 43 -133.5t125 -51.5q63 0 111 35q25 18 78 84l12 -55q-94 -88 -213 -88q-100 0 -156.5 59.5t-56.5 161.5z" />
<glyph unicode="&#xaa;" horiz-adv-x="550" d="M160 414q0 27 18 61q72 135 223 240q80 55 136 55q35 70 63 109q8 8 14 8q8 0 12.5 -18.5t8.5 -25.5t4 -9q0 -4 -4 -11q-162 -248 -162 -407q0 -63 49 -64q78 0 168 97q4 4 8 4q6 0 7 -7q0 -12 -58.5 -55t-79.5 -53q-74 -37 -116 -37q-55 0 -56 68q0 92 82 262 q-127 -176 -225 -236q-31 -18 -57 -18q-35 0 -35 37zM254 457q0 -20 14 -21q12 0 37 23q135 125 221 291q-61 0 -129 -62q-102 -92 -137 -199q-6 -18 -6 -32z" />
<glyph unicode="&#xab;" horiz-adv-x="636" d="M209 197v4q0 8 14 18q2 2 78 62q254 201 258 200q8 0 8 -10v-4q-10 -8 -32 -29q-74 -53 -248 -190q-18 -14 -19 -29q0 -4 4 -20q27 -78 80 -232q0 -6 -14 -6q-61 -12 -47 -12q-10 0 -15 16q-32 126 -67 232zM387 207q0 12 10 20q98 78 149.5 124t125.5 106q2 2 8 2 q10 0 10 -10q0 -8 -3 -10.5t-226 -182.5q-12 -10 -12 -20q0 -8 2 -13q45 -117 88 -233q0 -6 -23 -15l-29 -12q-2 -2 -6 -2q-10 0 -15 16.5t-38 108.5l-39 109q-2 4 -2 12z" />
<glyph unicode="&#xac;" horiz-adv-x="1460" d="M31 477v113h1362v-590h-113v477h-1249z" />
<glyph unicode="&#xad;" horiz-adv-x="475" d="M207 272q0 18 24 19h2h52q10 0 26 -2h15q37 0 109.5 2t109.5 2q23 0 22 -14q0 -16 -26 -17h-97h-88q-111 -2 -129 -2q-20 0 -20 12z" />
<glyph unicode="&#x2212;" horiz-adv-x="475" d="M207 272q0 18 24 19h2h52q10 0 26 -2h15q37 0 109.5 2t109.5 2q23 0 22 -14q0 -16 -26 -17h-97h-88q-111 -2 -129 -2q-20 0 -20 12z" />
<glyph unicode="&#xae;" horiz-adv-x="839" d="M342 559q0 156 125 264q119 104 276 105q248 0 248 -217q0 -158 -121.5 -260.5t-281.5 -102.5q-106 0 -172 51q-74 58 -74 160zM377 559q0 -90 65.5 -143.5t159.5 -53.5q143 0 249.5 95.5t106.5 236.5q0 219 -219 219q-147 0 -254.5 -104.5t-107.5 -249.5zM483 467 q96 180 183 367q8 0 26 2h25q104 0 104 -68q0 -100 -153 -119q41 -57 118 -170q-23 0 -41 -10q-49 102 -120 188l2 5h18q53 0 95 30.5t42 81.5q0 47 -67 47h-17q-59 -102 -170 -348q-22 0 -45 -6z" />
<glyph unicode="&#xaf;" horiz-adv-x="471" d="M160 651l10 31l176 4l-6 -31z" />
<glyph unicode="&#x2c9;" horiz-adv-x="471" d="M160 651l10 31l176 4l-6 -31z" />
<glyph unicode="&#xb0;" horiz-adv-x="466" d="M383 719q0 51 39 89t90 38t86 -34t35 -85t-39 -89t-90 -38t-86 34t-35 85zM410 719q0 -94 94 -94q41 0 71.5 30.5t30.5 71.5q0 94 -94 94q-41 0 -71.5 -30.5t-30.5 -71.5z" />
<glyph unicode="&#xb1;" horiz-adv-x="819" d="M274 0v61h570v-61h-570zM274 303v62h254v204h62v-204h254v-62h-254v-205h-62v205h-254z" />
<glyph unicode="&#xb2;" horiz-adv-x="657" d="M293 463q2 6 117 80q74 47 108 75q63 53 78 101q2 6 2 16q0 57 -61 58q-45 0 -74 -29q-4 -4 -8 -4q-6 0 -6 8q2 6 6 8q90 45 127 45q86 0 86 -65q0 -41 -58 -86q-117 -92 -174 -125l-2 -2q0 -12 88 -39q102 -31 140 -31q47 0 77 41q2 4 6 4q8 0 9 -8q0 -2 -4 -6 q-68 -63 -162 -64q-20 0 -47 6q-14 4 -90 29q-68 23 -80 23q-10 0 -64 -37q-2 -2 -8 -4q-6 0 -6 6z" />
<glyph unicode="&#xb3;" horiz-adv-x="657" d="M342 434q0 31 10 31q4 -2 4 -10q0 -66 86 -66h9q55 4 95 38t40 87q0 90 -74 90h-4q-14 0 -26.5 -8t-14.5 -8q-6 0 -6 6q2 6 6 8q72 39 102 68q43 39 43 75q0 51 -51 52q-37 0 -74 -29q-2 -2 -6 -2t-4 4t4 8q59 43 117 43q74 0 74 -59q0 -43 -78 -94q-8 -4 -29 -19 q-2 0 -2 -2q27 -8 68 -43q12 -20 12 -45q0 -57 -57.5 -115.5t-116.5 -74.5q-23 -6 -45 -7q-68 0 -80 56q-2 4 -2 16z" />
<glyph unicode="&#xb4;" horiz-adv-x="471" d="M55 559q0 2 6 8l316 254q8 4 10 4q16 0 16 -20q0 -4 -6 -10q-121 -92 -327 -236q-8 -4 -11 -4q-4 0 -4 4z" />
<glyph unicode="&#xb5;" horiz-adv-x="1179" d="M68 -311q0 47 38 188q18 66 19 139v1008h176v-682q0 -170 107 -217q47 -20 88 -21q39 0 79 19q111 51 150 139v762h176v-786q0 -61 25 -111q31 -63 86 -64q72 0 92 78q6 23 16 66h41q-16 -74 -37 -111q-68 -131 -211 -131q-125 0 -165 111q-2 8 -21 90 q-139 -201 -336 -201q-63 0 -121 41q-14 10 -71 57v-47q0 -63 24 -141q31 -96 36 -128t5 -58q0 -53 -22 -95q-27 -51 -76 -51t-76 51q-22 42 -22 95z" />
<glyph unicode="&#x3bc;" horiz-adv-x="1179" d="M68 -311q0 47 38 188q18 66 19 139v1008h176v-682q0 -170 107 -217q47 -20 88 -21q39 0 79 19q111 51 150 139v762h176v-786q0 -61 25 -111q31 -63 86 -64q72 0 92 78q6 23 16 66h41q-16 -74 -37 -111q-68 -131 -211 -131q-125 0 -165 111q-2 8 -21 90 q-139 -201 -336 -201q-63 0 -121 41q-14 10 -71 57v-47q0 -63 24 -141q31 -96 36 -128t5 -58q0 -53 -22 -95q-27 -51 -76 -51t-76 51q-22 42 -22 95z" />
<glyph unicode="&#xb6;" horiz-adv-x="1024" d="M262 -459q18 -6 35 -6q92 0 283 315l88 146q-16 -2 -39 -2q-59 0 -80 2q-188 18 -189 186q0 197 189 299q129 70 424 70h18q39 55 56 141q33 16 67 51q-4 -10 -4 -24q0 -23 23.5 -60.5t23.5 -56.5q0 -47 -61 -59q-20 -4 -60 -4h-30l-537 -920q-39 -68 -39 -115 q0 -23 6 -43q-27 39 -26 80q0 2 2 8v9q-33 -37 -93 -37q-43 0 -57 20zM580 295q37 -41 57 -98q78 59 119 61q-20 -33 -54 -106q-41 -92 -40 -119q0 -14 10 -31l311 537q-6 -4 -18 -9q-53 -25 -101 -98q-12 -18 -47 -74q-16 -25 -55 -90q-35 8 -78 97q-16 -16 -94 -64z M1012 551h53q35 4 35 37q0 29 -35 67l-25 -49q-10 -20 -28 -55z" />
<glyph unicode="&#xb7;" horiz-adv-x="450" d="M285 350v6q0 35 27.5 67t62.5 32q8 0 12 -2q25 -6 25 -33q0 -63 -76 -98q-4 -2 -14 -3q-37 0 -37 31z" />
<glyph unicode="&#x2219;" horiz-adv-x="450" d="M285 350v6q0 35 27.5 67t62.5 32q8 0 12 -2q25 -6 25 -33q0 -63 -76 -98q-4 -2 -14 -3q-37 0 -37 31z" />
<glyph unicode="&#xb8;" horiz-adv-x="471" d="M113 -283q2 4 10 9q137 41 137 90q0 10 -51 47q-14 10 -14 24q0 25 55 62q39 27 76 41h4q8 0 8 -4t-6 -6q-76 -20 -76 -58q0 -12 27 -24q39 -18 39 -43q0 -20 -27 -43q-80 -68 -152 -103q-8 -4 -14 -4q-16 0 -16 12z" />
<glyph unicode="&#xb9;" horiz-adv-x="657" d="M324 467q0 10 32 10h60q29 4 39 19q88 127 153 278q2 2 2 8q0 16 -39 17q-14 0 -42.5 -2t-43.5 -2q-16 0 -16 12q0 6 10 6q35 0 102.5 3t102.5 3q14 0 14 -10q0 -2 -22 -35q-8 -16 -101 -178q-20 -35 -51 -104q0 -8 19 -9h18q18 2 31 2h47q16 0 16 -10q0 -12 -37 -12 q-37 4 -61 4q-104 0 -190 -14h-15q-28 0 -28 14z" />
<glyph unicode="&#xba;" horiz-adv-x="485" d="M209 418q0 141 223 317q68 53 105 53q41 0 41 -57q0 -160 -154 -309q-78 -76 -148 -76q-67 0 -67 72zM287 424q0 -51 30 -51q18 0 45 18q141 98 142 293v16q0 43 -19 43q-12 0 -28 -12q-170 -125 -170 -307z" />
<glyph unicode="&#xbb;" horiz-adv-x="636" d="M123 -51q0 6 12 16q119 92 260 219q14 12 15 23q0 4 -9 18q-63 104 -129 211q-4 8 -4 13q0 4 41 16q4 2 13 2q14 0 84 -119q20 -35 63 -102q4 -8 4 -13q0 -12 -8 -18q-154 -115 -293 -260q-16 -16 -33 -16q-16 0 -16 10zM330 -12q0 8 10 16q94 82 240 201q4 4 4 8t-4 10 q-55 102 -117 217q0 18 49 29h6q12 0 19 -16q39 -98 104 -193q8 -12 8 -22q0 -8 -6 -13q-174 -127 -287 -239q-8 -8 -16 -9q-10 1 -10 11z" />
<glyph unicode="&#xbc;" horiz-adv-x="1062" d="M172 -98q0 12 21 35q356 377 880 944q20 23 35 22q16 0 16 -10t-20 -31q-453 -463 -887 -952q-23 -25 -33 -25q-12 1 -12 17zM242 467q0 10 32 10h62q29 4 39 19q88 127 153 278q2 2 2 8q0 16 -38 17q-39 0 -80 -4q-25 0 -25 12q0 6 10 6q35 0 103.5 3t103.5 3 q12 0 12 -10q-59 -102 -122 -213q-49 -88 -50 -104q0 -8 17 -9h18q18 2 31 2h49q16 0 16 -10q0 -12 -38 -12q-37 4 -60 4q10 0 -4 0q-14 -2 -42 -2t-80 -6t-79 -6q-30 0 -30 14zM592 143q0 6 8 13q121 94 365 258l8 4q6 0 8 -10q-55 -86 -121 -228h84q20 0 49 -4 q10 0 11 -14q0 -10 -9.5 -34t-17.5 -24q-4 2 -4 7q0 2 2 6t2 8q0 10 -8 10q-55 8 -125 8q-23 -49 -45 -106q-6 -14 -6 -29q0 -4 2 -11t2 -9q0 -6 -4 -6t-9 4q-14 10 -32 28q-6 8 -7 19q0 18 46 108q-39 -4 -142 -8l-43 -2q-14 0 -14 12zM668 180q0 -4 12 -4q23 0 65.5 2 t63.5 2q63 127 92 176q-131 -82 -227 -168q-6 -2 -6 -8z" />
<glyph unicode="&#xbd;" horiz-adv-x="1062" d="M172 -98q0 12 21 35q356 377 880 944q20 23 35 22q16 0 16 -10t-20 -31q-453 -463 -887 -952q-23 -25 -33 -25q-12 1 -12 17zM240 467q0 10 32 10h60q29 4 39 19q88 127 153 278q2 2 2 8q0 16 -39 17q-14 0 -41.5 -2t-42.5 -2q-18 0 -18 12q0 6 10 6h41q27 0 82 3t82 3 q14 0 14 -10q0 -2 -22 -35q-8 -16 -100 -178q-20 -35 -52 -104q0 -8 19 -9h18q18 2 31 2h47q16 0 16 -10q0 -12 -26 -12q-12 0 -36 2t-36 2h-24q-4 0 -25 -2q-45 -4 -156 -12q-28 -2 -28 14zM557 12q0 4 6 11l111 71q92 59 127 90q59 51 59 101q0 59 -59 59q-25 0 -53 -16 l-29 -17q-6 0 -6 6t35 25q53 29 96 29q86 0 86 -66q0 -43 -56 -86q-113 -86 -174 -123q-2 0 -4 -4q0 -2 4 -4q131 -63 224 -63q47 0 77 38q2 4 9 5q6 0 6 -7q0 -6 -4 -8q-66 -61 -160 -61q-29 0 -49 4q-80 16 -156 49q-8 4 -12 4t-17 -6q-4 -2 -47 -33q-4 -2 -8 -2 q-6 0 -6 4z" />
<glyph unicode="&#xbe;" horiz-adv-x="1062" d="M184 -98q0 12 21 35q356 377 880 944q20 23 35 22h8q8 -4 9 -10q0 -10 -21 -31q-453 -463 -887 -952q-23 -25 -32 -25q-13 1 -13 17zM274 434q0 31 11 31q4 -2 4 -10q0 -66 84 -66q57 0 100 35t43 90q0 90 -76 90q-14 0 -26.5 -8t-14.5 -8q-6 0 -6 6q2 6 6 8 q143 80 144 143q0 51 -49 52q-37 0 -74 -29q-2 -2 -8 -2q-4 0 -4 4q2 6 6 8q59 43 116 43q74 0 74 -59q0 -43 -78 -94q-8 -4 -28 -19q-2 0 -2 -2q27 -8 65 -43q12 -20 12 -45q0 -57 -56 -115.5t-116 -74.5q-23 -6 -45 -7q-68 0 -80 56q-2 4 -2 16zM608 141q0 6 8 13 q332 262 369 262q6 0 6 -6l2 -2l-2 -2q-2 -8 -6 -11q-51 -80 -113 -215h84q20 0 50 -4q10 0 10 -14q-2 -10 -2 -8q-2 -10 -17 -43q-2 -6 -8 -7q-8 0 -8 7l2 4q2 4 2 10q0 10 -6 10q-55 8 -123 8q-51 -115 -51 -135q0 -8 4 -16v-4q0 -6 -6 -6q-4 0 -8 4q-37 31 -37 47 q0 6 45 108q-41 -2 -141 -8q-29 -2 -39 -2q-15 0 -15 10zM686 178q0 -6 8 -6h2l123 6q43 90 84 168q-139 -88 -213 -162q-4 -4 -4 -6z" />
<glyph unicode="&#xbf;" horiz-adv-x="532" d="M-63 -231q0 127 192 268q45 29 131 89t86 116q0 63 -72 80q-8 2 -8 10t13 8h18q12 -2 18 -2t19 2h22q35 0 57.5 -37t22.5 -74v-8q-2 -6 -2 -10q-4 -23 -26 -31q-66 -25 -123 -61q-260 -166 -260 -322q0 -123 116 -123q127 0 219 148q4 6 11 6q8 0 8 -8q0 -2 -2 -4 q-39 -76 -146 -142q-70 -43 -137 -43q-35 0 -69 13q-88 31 -88 125zM451 485q0 29 57 47q12 4 20 5q41 0 41 -41v-7q-2 -4 -2 -6q-8 -49 -69 -75q-2 -2 -9 -2q-10 0 -13 17t-14 37.5t-11 24.5z" />
<glyph unicode="&#xc0;" d="M45 -53q0 12 4 38.5t4 39.5q0 27 78 86q190 145 451 319q-2 2 -7 10q-10 31 -10 56q0 12 6 12q18 -10 37 -19q12 -6 51 -10q199 131 295 189q125 74 281 178q2 0 33 28q20 18 32 19q10 0 30 -2t30 -2q33 0 49 2l49 6q10 0 10 -10q0 -2 -47 -17q-18 -8 -28 -26 q-217 -379 -355 -692q-23 -51 -22 -84q0 -66 74 -66q63 0 163 66q8 4 13 4q8 0 8 -6q0 -4 -10 -11q-152 -96 -265 -96q-98 0 -98 80q0 43 86 205q55 100 111 202h-39q-242 0 -443 -20q-199 -133 -272 -188q-152 -115 -240 -224q-31 -37 -41 -71q-2 -10 -8 -11q-10 1 -10 15z M692 477q193 -14 414 -14q166 319 166 356q0 8 -6 8q-4 0 -13 -4q-115 -61 -301 -178q-158 -100 -260 -168zM1243 1210q0 31 23 31q6 0 8 -8q33 -76 86 -232v-4q0 -4 -2 -4t-6 4q-61 113 -101 191q-8 16 -8 22z" />
<glyph unicode="&#xc1;" d="M45 -53q0 12 4 38.5t4 39.5q0 27 78 86q190 145 451 319q-2 2 -7 10q-10 31 -10 56q0 12 6 12q18 -10 37 -19q12 -6 51 -10q199 131 295 189q125 74 281 178q2 0 33 28q20 18 32 19q10 0 30 -2t30 -2q33 0 49 2l49 6q10 0 10 -10q0 -2 -47 -17q-18 -8 -28 -26 q-217 -379 -355 -692q-23 -51 -22 -84q0 -66 74 -66q63 0 163 66q8 4 13 4q8 0 8 -6q0 -4 -10 -11q-152 -96 -265 -96q-98 0 -98 80q0 43 86 205q55 100 111 202h-39q-242 0 -443 -20q-199 -133 -272 -188q-152 -115 -240 -224q-31 -37 -41 -71q-2 -10 -8 -11q-10 1 -10 15z M692 477q193 -14 414 -14q166 319 166 356q0 8 -6 8q-4 0 -13 -4q-115 -61 -301 -178q-158 -100 -260 -168zM1317 993q0 2 6 8l315 254q8 4 11 5q16 0 16 -19q0 -6 -6 -12q-121 -92 -328 -236q-8 -4 -10 -4q-4 0 -4 4z" />
<glyph unicode="&#xc2;" d="M45 -53q0 12 4 38.5t4 39.5q0 27 78 86q190 145 451 319q-2 2 -7 10q-10 31 -10 56q0 12 6 12q18 -10 37 -19q12 -6 51 -10q199 131 295 189q125 74 281 178q2 0 33 28q20 18 32 19q10 0 30 -2t30 -2q33 0 49 2l49 6q10 0 10 -10q0 -2 -47 -17q-18 -8 -28 -26 q-217 -379 -355 -692q-23 -51 -22 -84q0 -66 74 -66q63 0 163 66q8 4 13 4q8 0 8 -6q0 -4 -10 -11q-152 -96 -265 -96q-98 0 -98 80q0 43 86 205q55 100 111 202h-39q-242 0 -443 -20q-199 -133 -272 -188q-152 -115 -240 -224q-31 -37 -41 -71q-2 -10 -8 -11q-10 1 -10 15z M692 477q193 -14 414 -14q166 319 166 356q0 8 -6 8q-4 0 -13 -4q-115 -61 -301 -178q-158 -100 -260 -168zM1243 991q0 10 19 27q70 74 217 201q8 4 10 4q8 0 8 -11q0 -33 5 -99t5 -99q0 -20 -24 -45q-10 -10 -17 -11q-6 0 -6 15q0 -18 -6 184q0 12 -8 12q-4 0 -10 -6 q-80 -72 -158 -159q-20 -23 -27 -23q-8 0 -8 10z" />
<glyph unicode="&#xc3;" d="M45 -53q0 12 4 38.5t4 39.5q0 27 78 86q190 145 451 319q-2 2 -7 10q-10 31 -10 56q0 12 6 12q18 -10 37 -19q12 -6 51 -10q199 131 295 189q125 74 281 178q2 0 33 28q20 18 32 19q10 0 30 -2t30 -2q33 0 49 2l49 6q10 0 10 -10q0 -2 -47 -17q-18 -8 -28 -26 q-217 -379 -355 -692q-23 -51 -22 -84q0 -66 74 -66q63 0 163 66q8 4 13 4q8 0 8 -6q0 -4 -10 -11q-152 -96 -265 -96q-98 0 -98 80q0 43 86 205q55 100 111 202h-39q-242 0 -443 -20q-199 -133 -272 -188q-152 -115 -240 -224q-31 -37 -41 -71q-2 -10 -8 -11q-10 1 -10 15z M692 477q193 -14 414 -14q166 319 166 356q0 8 -6 8q-4 0 -13 -4q-115 -61 -301 -178q-158 -100 -260 -168zM1151 987q0 35 113 119q27 20 53 20q27 0 69 -39q31 -29 62 -59q27 -18 51 -18q33 0 56.5 28.5t23.5 61.5q0 14 10 14q12 0 8 -14q-8 -43 -24 -66q-45 -61 -100 -61 q-33 0 -66 26q-18 18 -72 66q-23 20 -45 20q-23 0 -49 -20q-6 -4 -41 -44t-43 -40q-6 0 -6 6z" />
<glyph unicode="&#xc4;" d="M45 -53q0 12 4 38.5t4 39.5q0 27 78 86q190 145 451 319q-2 2 -7 10q-10 31 -10 56q0 12 6 12q18 -10 37 -19q12 -6 51 -10q199 131 295 189q125 74 281 178q2 0 33 28q20 18 32 19q10 0 30 -2t30 -2q33 0 49 2l49 6q10 0 10 -10q0 -2 -47 -17q-18 -8 -28 -26 q-217 -379 -355 -692q-23 -51 -22 -84q0 -66 74 -66q63 0 163 66q8 4 13 4q8 0 8 -6q0 -4 -10 -11q-152 -96 -265 -96q-98 0 -98 80q0 43 86 205q55 100 111 202h-39q-242 0 -443 -20q-199 -133 -272 -188q-152 -115 -240 -224q-31 -37 -41 -71q-2 -10 -8 -11q-10 1 -10 15z M692 477q193 -14 414 -14q166 319 166 356q0 8 -6 8q-4 0 -13 -4q-115 -61 -301 -178q-158 -100 -260 -168zM1266 1069q0 27 20.5 50.5t46.5 23.5q27 0 27 -25t-22.5 -49.5t-47.5 -24.5q-24 0 -24 25zM1475 1061q0 27 20.5 50.5t46.5 23.5q27 0 27 -25t-22.5 -49.5 t-47.5 -24.5q-24 0 -24 25z" />
<glyph unicode="&#xc5;" d="M45 -53q0 12 4 38.5t4 39.5q0 27 78 86q190 145 451 319q-2 2 -7 10q-10 31 -10 56q0 12 6 12q18 -10 37 -19q12 -6 51 -10q199 131 295 189q125 74 281 178q2 0 33 28q20 18 32 19q10 0 30 -2t30 -2q33 0 49 2l49 6q10 0 10 -10q0 -2 -47 -17q-18 -8 -28 -26 q-217 -379 -355 -692q-23 -51 -22 -84q0 -66 74 -66q63 0 163 66q8 4 13 4q8 0 8 -6q0 -4 -10 -11q-152 -96 -265 -96q-98 0 -98 80q0 43 86 205q55 100 111 202h-39q-242 0 -443 -20q-199 -133 -272 -188q-152 -115 -240 -224q-31 -37 -41 -71q-2 -10 -8 -11q-10 1 -10 15z M692 477q193 -14 414 -14q166 319 166 356q0 8 -6 8q-4 0 -13 -4q-115 -61 -301 -178q-158 -100 -260 -168zM1317 1063q0 47 37 84t84 37q78 0 78 -76q0 -49 -36 -85t-85 -36q-78 0 -78 76zM1346 1067q0 -51 55 -51q68 0 84 69q2 6 2 17q0 53 -55 53q-68 0 -84 -70 q-2 -6 -2 -18z" />
<glyph unicode="&#xc6;" horiz-adv-x="1675" d="M45 -49q0 12 4 35.5t4 36.5v8q0 23 78 84q162 127 455 321q-20 10 -21 60v2q0 12 6 12q6 -2 11 -8q6 -12 73 -21q35 23 570 361q6 2 6 8q0 8 -12 8q-190 0 -273 -14q-6 0 -16 -8.5t-17 -8.5q-6 0 -6 9q0 2 2 2v2q2 14 9 32q4 12 22 13h25q59 0 180 -2t182 -2q25 0 311 10 q57 2 115 2h35q14 0 14 -10q-4 -4 -26 -56q-2 -6 -11 -6q-4 0 -8 10.5t-18 12.5q-106 18 -285 18q-33 0 -49 -20q-68 -88 -225 -369h219q133 6 217 33h8q6 0 6 -4q0 -2 -8 -16.5t-8 -22.5q-4 -16 -21 -17h-2q-35 0 -103.5 2.5t-103.5 2.5h-108l-111 -2q-92 -164 -139 -273 q-20 -47 -20 -82q0 -96 143 -96q166 0 369 55q117 31 188 80q8 4 10 4q6 0 6 -6q-18 -18 -49 -59q-14 -27 -59 -37q-266 -59 -484 -60q-111 0 -147 7q-102 16 -102 77q0 31 24 78q33 61 176 309q-170 -2 -458 -12q-219 -147 -275 -190q-154 -115 -244 -226q-31 -37 -41 -71 q-2 -10 -8 -10q-10 0 -10 14zM690 479q94 -6 332 -6h74l30 55q51 90 156 295q2 4 2 11q0 6 -6 6q-4 0 -12 -4q-23 -12 -314 -189q-72 -45 -262 -168z" />
<glyph unicode="&#xc7;" horiz-adv-x="1042" d="M182 207q0 168 135 364q233 342 560 342h10q164 0 287 -71q18 -10 18 -33q0 -14 -8 -27q-45 -72 -64 -127q-4 -14 -14 -14q-6 0 -6 8q12 47 12 60q0 96 -76 145q-63 41 -164 41h-10q-199 0 -407 -291q-180 -252 -181 -452q0 -170 220 -170q334 0 593 362q6 6 9 6 q8 0 8 -28v-3q0 -23 -17 -47q-172 -260 -514 -303q-35 -12 -55 -30q-16 -10 -16 -25q0 -14 24 -27q39 -18 39 -43q0 -20 -26 -43q-80 -68 -152 -102q-8 -4 -14 -4q-16 0 -17 12q2 4 11 8q137 41 137 90q0 14 -21 29q-47 27 -47 43q0 39 105 88q-16 -2 -52 -2 q-307 0 -307 244z" />
<glyph unicode="&#xc8;" horiz-adv-x="987" d="M188 63q0 37 23 78q4 8 94 166q80 139 80 144q0 8 -27 8q-18 0 -18 10t25 14q47 6 69 49q168 309 168 324q0 8 -12 8q-129 0 -197 -12q-12 -2 -22 -8l-11 -8q-6 0 -6 8q0 -2 11 37q4 12 20 12q205 -8 254 -8q20 0 307 10q57 2 115 2h35q12 0 12 -10q0 -14 -2 -17l-33 -45 q-6 0 -12 10.5t-14 12.5q-102 18 -285 18q-33 0 -49 -20q-94 -123 -215 -346q-10 -18 12 -19q70 -2 115 -2q115 0 168 4q80 6 129 27h8q8 0 8 -6l-4 -8q-6 -18 -21 -41q-6 -4 -14 -4q-164 4 -240 4q-96 0 -172 -2q-16 0 -22 -13q-90 -160 -133 -260q-20 -47 -21 -82 q0 -96 146 -96q162 0 366 55q119 33 191 80q8 4 10 4q6 0 6 -6q-18 -18 -49 -59q-14 -27 -59 -37q-266 -59 -484 -59q-111 0 -147 6q-103 16 -103 77zM825 1210q0 12 11 25q6 6 10 6q6 0 8 -8q33 -76 86 -232v-4q0 -6 -2 -6q-4 0 -6 6q-61 113 -101 191q-6 12 -6 22z" />
<glyph unicode="&#xc9;" horiz-adv-x="987" d="M188 63q0 37 23 78q4 8 94 166q80 139 80 144q0 8 -27 8q-18 0 -18 10t25 14q47 6 69 49q168 309 168 324q0 8 -12 8q-129 0 -197 -12q-12 -2 -22 -8l-11 -8q-6 0 -6 8q0 -2 11 37q4 12 20 12q205 -8 254 -8q20 0 307 10q57 2 115 2h35q12 0 12 -10q0 -14 -2 -17l-33 -45 q-6 0 -12 10.5t-14 12.5q-102 18 -285 18q-33 0 -49 -20q-94 -123 -215 -346q-10 -18 12 -19q70 -2 115 -2q115 0 168 4q80 6 129 27h8q8 0 8 -6l-4 -8q-6 -18 -21 -41q-6 -4 -14 -4q-164 4 -240 4q-96 0 -172 -2q-16 0 -22 -13q-90 -160 -133 -260q-20 -47 -21 -82 q0 -96 146 -96q162 0 366 55q119 33 191 80q8 4 10 4q6 0 6 -6q-18 -18 -49 -59q-14 -27 -59 -37q-266 -59 -484 -59q-111 0 -147 6q-103 16 -103 77zM825 995q2 6 6 11l316 254q8 4 10 4q16 0 17 -21q0 -4 -7 -10q-121 -92 -327 -236q-8 -4 -11 -4q-2 0 -4 2z" />
<glyph unicode="&#xca;" horiz-adv-x="987" d="M188 63q0 37 23 78q4 8 94 166q80 139 80 144q0 8 -27 8q-18 0 -18 10t25 14q47 6 69 49q168 309 168 324q0 8 -12 8q-129 0 -197 -12q-12 -2 -22 -8l-11 -8q-6 0 -6 8q0 -2 11 37q4 12 20 12q205 -8 254 -8q20 0 307 10q57 2 115 2h35q12 0 12 -10q0 -14 -2 -17l-33 -45 q-6 0 -12 10.5t-14 12.5q-102 18 -285 18q-33 0 -49 -20q-94 -123 -215 -346q-10 -18 12 -19q70 -2 115 -2q115 0 168 4q80 6 129 27h8q8 0 8 -6l-4 -8q-6 -18 -21 -41q-6 -4 -14 -4q-164 4 -240 4q-96 0 -172 -2q-16 0 -22 -13q-90 -160 -133 -260q-20 -47 -21 -82 q0 -96 146 -96q162 0 366 55q119 33 191 80q8 4 10 4q6 0 6 -6q-18 -18 -49 -59q-14 -27 -59 -37q-266 -59 -484 -59q-111 0 -147 6q-103 16 -103 77zM780 995q0 12 17 27q61 53 151 143q43 43 66 58q4 2 10 2q8 0 8 -8q0 -33 5 -99.5t5 -99.5q0 -20 -26 -47 q-10 -10 -15 -10q-6 0 -6 16q0 -16 -6 184q0 10 -6 10q-4 0 -12 -4q-76 -70 -158 -159q-20 -23 -25 -25q-8 0 -8 12z" />
<glyph unicode="&#xcb;" horiz-adv-x="987" d="M188 63q0 37 23 78q4 8 94 166q80 139 80 144q0 8 -27 8q-18 0 -18 10t25 14q47 6 69 49q168 309 168 324q0 8 -12 8q-129 0 -197 -12q-12 -2 -22 -8l-11 -8q-6 0 -6 8q0 -2 11 37q4 12 20 12q205 -8 254 -8q20 0 307 10q57 2 115 2h35q12 0 12 -10q0 -14 -2 -17l-33 -45 q-6 0 -12 10.5t-14 12.5q-102 18 -285 18q-33 0 -49 -20q-94 -123 -215 -346q-10 -18 12 -19q70 -2 115 -2q115 0 168 4q80 6 129 27h8q8 0 8 -6l-4 -8q-6 -18 -21 -41q-6 -4 -14 -4q-164 4 -240 4q-96 0 -172 -2q-16 0 -22 -13q-90 -160 -133 -260q-20 -47 -21 -82 q0 -96 146 -96q162 0 366 55q119 33 191 80q8 4 10 4q6 0 6 -6q-18 -18 -49 -59q-14 -27 -59 -37q-266 -59 -484 -59q-111 0 -147 6q-103 16 -103 77zM743 1069q0 27 20.5 50.5t47.5 23.5t27 -25t-22.5 -49.5t-47.5 -24.5t-25 25zM952 1061q0 27 20.5 50.5t47.5 23.5t27 -25 t-23 -49.5t-47 -24.5q-25 0 -25 25z" />
<glyph unicode="&#xcc;" horiz-adv-x="446" d="M100 -29q0 8 11 11q23 2 43 30q131 182 323 563q104 207 105 254q0 23 -37 27h-23q-61 0 -98 -6q-18 -6 -18 8t18 14q72 2 154 11q115 12 143 12q16 0 16 -12q0 -6 -12 -11q-23 -6 -43 -53q-55 -125 -98 -211q-178 -358 -314 -585q-27 -45 -71 -52q6 0 -88 -6 q-11 0 -11 6zM561 1212q0 12 10 25q6 6 11 6q6 0 8 -8q33 -76 86 -231v-5q0 -6 -2 -6q-4 0 -6 6q-61 113 -101 191q-6 12 -6 22z" />
<glyph unicode="&#xcd;" horiz-adv-x="446" d="M100 -29q0 8 11 11q23 2 43 30q131 182 323 563q104 207 105 254q0 23 -37 27h-23q-61 0 -98 -6q-18 -6 -18 8t18 14q72 2 154 11q115 12 143 12q16 0 16 -12q0 -6 -12 -11q-23 -6 -43 -53q-55 -125 -98 -211q-178 -358 -314 -585q-27 -45 -71 -52q6 0 -88 -6 q-11 0 -11 6zM647 991q0 2 6 8l316 254q8 4 10 4q16 0 16 -18q0 -6 -6 -12q-121 -92 -327 -236q-8 -4 -11 -4q-4 0 -4 4z" />
<glyph unicode="&#xce;" horiz-adv-x="446" d="M100 -29q0 8 11 11q23 2 43 30q131 182 323 563q104 207 105 254q0 23 -37 27h-23q-61 0 -98 -6q-18 -6 -18 8t18 14q72 2 154 11q115 12 143 12q16 0 16 -12q0 -6 -12 -11q-23 -6 -43 -53q-55 -125 -98 -211q-178 -358 -314 -585q-27 -45 -71 -52q6 0 -88 -6 q-11 0 -11 6zM561 999q0 10 19 27q61 53 151 143q43 43 66 58q8 4 10 4q8 0 8 -10q0 -33 5 -99.5t5 -99.5q0 -20 -24 -45q-10 -10 -17 -10q-6 0 -6 14q0 -16 -6 184q0 10 -8 11q-4 0 -10 -5q-76 -70 -158 -159q-20 -23 -27 -25q-6 0 -8 12z" />
<glyph unicode="&#xcf;" horiz-adv-x="446" d="M100 -29q0 8 11 11q23 2 43 30q131 182 323 563q104 207 105 254q0 23 -37 27h-23q-61 0 -98 -6q-18 -6 -18 8t18 14q72 2 154 11q115 12 143 12q16 0 16 -12q0 -6 -12 -11q-23 -6 -43 -53q-55 -125 -98 -211q-178 -358 -314 -585q-27 -45 -71 -52q6 0 -88 -6 q-11 0 -11 6zM535 1069q0 27 20 50.5t47 23.5t27 -25t-22.5 -49.5t-47.5 -24.5q-24 0 -24 25zM743 1061q0 27 20.5 50.5t47.5 23.5t27 -25t-22.5 -49.5t-47.5 -24.5t-25 25z" />
<glyph unicode="&#xd0;" horiz-adv-x="1091" d="M133 6q0 4 38 55.5t42 59.5q74 133 182 319q-18 0 -55 -4t-55 -4q-33 0 -33 35q0 4 4 4h2q0 -2 37 -4q57 -2 117 0q147 258 209 379q4 8 4 12q0 10 -17 10q-43 0 -127 -13t-127 -13q-37 0 -37 32q0 2 2 7v8q4 12 9 12q4 -4 12 -10q20 -12 74 -12q20 0 94 4q41 2 102 4 l197 6q436 0 436 -283q0 -168 -113.5 -330.5t-269.5 -232.5q-143 -63 -325 -63q-158 0 -254 51q-18 10 -35 10q-18 0 -59.5 -22.5t-47.5 -22.5t-6 6zM307 96q0 -12 12 -24q70 -72 213 -72q338 0 517 297q96 162 96 326q0 135 -117 200q-92 51 -237 51q-49 0 -64 -24 q-139 -229 -225 -379q70 4 116 4h44q18 0 18 -18t-8 -19l-24 4q-24 4 -38 4q-37 0 -123 -4q-119 -215 -172 -321q-8 -17 -8 -25z" />
<glyph unicode="&#xd1;" horiz-adv-x="1144" d="M18 -141q0 39 27 92q57 119 315 553q160 270 160 319q0 43 -49 43q-18 0 -52 -3t-52 -3q-25 0 -25 29q0 10 12 10h6q41 -12 99 -12q27 0 75 10t70 10q18 0 19 -18q6 -63 16 -103q88 -336 283 -600q16 -23 28 -22q14 0 25 20q260 506 424 754q84 127 151 127 q18 0 41 -13.5t23 -29.5q0 -4 -6 -4h-19q-96 0 -205 -154q-193 -274 -366 -665q-27 -59 -92 -209q-6 -14 -13 -15q-8 0 -18 15q-199 342 -332 721q-10 27 -22 26q-10 0 -27 -24q-285 -440 -410 -750q-43 -106 -43 -190q0 -12 -4 -13q-10 2 -24.5 43.5t-14.5 55.5zM784 983 q2 6 9 14q41 53 106 103q27 20 53 20q25 0 70 -39q31 -31 61 -59q27 -18 52 -18q35 0 56 27.5t21 62.5q0 14 13 14q8 0 8 -10v-2q-2 0 -2 -2q-8 -41 -25 -64q-45 -63 -98 -63q-33 0 -62.5 26.5t-74.5 67.5q-20 18 -47 18q-23 0 -50 -20q-82 -82 -83 -82q-7 0 -7 6z" />
<glyph unicode="&#xd2;" horiz-adv-x="1171" d="M211 227q0 127 86 291q82 154 184 248q174 160 443 160q158 0 260 -58q129 -72 127 -217q-4 -274 -219 -489t-490 -215q-391 -1 -391 280zM313 205q0 -240 273 -240q242 0 434 234q184 221 184 469q0 242 -278 241q-213 0 -367 -172q-94 -106 -166 -250 q-80 -163 -80 -282zM862 1251q0 12 10 25q6 6 11 6q6 0 8 -8q33 -76 86 -232q0 -2 2 -2v-2q0 -4 -4 -4q-2 0 -6 4q-61 113 -101 191q-6 12 -6 22z" />
<glyph unicode="&#xd3;" horiz-adv-x="1171" d="M211 227q0 127 86 291q82 154 184 248q174 160 443 160q158 0 260 -58q129 -72 127 -217q-4 -274 -219 -489t-490 -215q-391 -1 -391 280zM313 205q0 -240 273 -240q242 0 434 234q184 221 184 469q0 242 -278 241q-213 0 -367 -172q-94 -106 -166 -250 q-80 -163 -80 -282zM965 1038q0 2 6 9l323 258q18 0 19 -21q0 -4 -6 -10q-121 -92 -328 -236q-8 -4 -10 -4q-4 0 -4 4z" />
<glyph unicode="&#xd4;" horiz-adv-x="1171" d="M211 227q0 127 86 291q82 154 184 248q174 160 443 160q158 0 260 -58q129 -72 127 -217q-4 -274 -219 -489t-490 -215q-391 -1 -391 280zM313 205q0 -240 273 -240q242 0 434 234q184 221 184 469q0 242 -278 241q-213 0 -367 -172q-94 -106 -166 -250 q-80 -163 -80 -282zM877 1044q0 8 18 25q61 53 152 143q43 43 65 58q8 4 10 4q8 0 8 -10q0 -33 5.5 -99.5t5.5 -99.5q0 -20 -25 -45q-10 -10 -16 -10t-6 14q0 -18 -7 184q0 12 -8 13q-4 0 -10 -7q-80 -72 -158 -159q-18 -20 -24 -23q-10 0 -10 12z" />
<glyph unicode="&#xd5;" horiz-adv-x="1171" d="M211 227q0 127 86 291q82 154 184 248q174 160 443 160q158 0 260 -58q129 -72 127 -217q-4 -274 -219 -489t-490 -215q-391 -1 -391 280zM313 205q0 -240 273 -240q242 0 434 234q184 221 184 469q0 242 -278 241q-213 0 -367 -172q-94 -106 -166 -250 q-80 -163 -80 -282zM754 1026q0 35 112 119q27 20 54 20t71 -39q31 -31 62 -59q27 -18 49 -18q33 0 56.5 28.5t23.5 61.5q0 14 10 14q8 0 8 -10v-4q-8 -43 -24 -66q-45 -61 -99 -61q-35 0 -67 26q-18 18 -72 66q-23 20 -45 20q-23 0 -49 -20q-6 -4 -41 -44t-43 -40 q-6 0 -6 6z" />
<glyph unicode="&#xd6;" horiz-adv-x="1171" d="M211 227q0 127 86 291q82 154 184 248q174 160 443 160q158 0 260 -58q129 -72 127 -217q-4 -274 -219 -489t-490 -215q-391 -1 -391 280zM313 205q0 -240 273 -240q242 0 434 234q184 221 184 469q0 242 -278 241q-213 0 -367 -172q-94 -106 -166 -250 q-80 -163 -80 -282zM827 1110q0 27 20.5 50.5t47.5 23.5t27 -25t-22.5 -49.5t-47.5 -24.5t-25 25zM1036 1102q0 27 20.5 50.5t47.5 23.5t26 -25q0 -25 -22.5 -49.5t-46.5 -24.5q-25 0 -25 25z" />
<glyph unicode="&#xd7;" horiz-adv-x="819" d="M274 45l238 240l-238 239l45 45l240 -241l240 241l45 -45l-240 -239l240 -240l-45 -45l-240 242l-240 -242z" />
<glyph unicode="&#xd8;" horiz-adv-x="1171" d="M182 -102q0 18 23 39l86 79q-94 76 -94 211q0 131 88 293q76 141 184 246q166 160 440 160h4q178 0 279 -72l94 88q14 14 31 14q12 0 12 -8q0 -10 -16 -24l-96 -88q82 -72 81 -179v-12q0 -186 -158.5 -402t-375.5 -270q-68 -16 -201 -26q-61 4 -182 24q-27 8 -62 27 q-16 -16 -47.5 -47t-48 -47.5t-30.5 -16.5q-11 1 -11 11zM299 205q0 -88 39 -146l815 756q-61 94 -240 94h-4q-319 0 -528 -417q-82 -164 -82 -283v-4zM356 35q63 -70 203 -70h12q37 0 97 10q207 35 368 258q154 215 154 431v4q0 70 -23 123q-530 -480 -811 -756z" />
<glyph unicode="&#xd9;" d="M188 147q0 74 82 211q12 18 131 191q127 186 174 272q8 14 9 25q0 18 -31 18h-41q-68 -2 -53 -2q-10 0 -27 2h-22q-16 0 -17 13q0 12 15 12l163 -6q41 0 107 4q33 6 98 12q10 0 10 -8t-12 -10q-121 -25 -418 -543q-51 -90 -51 -168q0 -143 164 -143q152 0 303 100 q180 119 283 291q68 121 225 405q27 49 72 64q90 31 123 31q12 0 12 -13q0 -8 -8 -8q-27 -4 -43 -25q-172 -211 -312 -489q-100 -201 -100 -289q0 -94 88 -94q49 0 113 27l61 28q12 0 12 -10q0 -8 -8 -10q-147 -66 -250 -66q-135 0 -135 105q0 76 82 205v4q0 2 -2 4 q-51 0 -106 -70q-72 -92 -97 -108q-199 -131 -374 -132q-90 0 -150 39q-70 45 -70 131zM952 1210q0 12 11 25q6 6 10 6q6 0 8 -8q33 -76 86 -232v-4q0 -6 -2 -6q-4 0 -6 6q-61 113 -101 191q-6 12 -6 22z" />
<glyph unicode="&#xda;" d="M188 147q0 74 82 211q12 18 131 191q127 186 174 272q8 14 9 25q0 18 -31 18h-41q-68 -2 -53 -2q-10 0 -27 2h-22q-16 0 -17 13q0 12 15 12l163 -6q41 0 107 4q33 6 98 12q10 0 10 -8t-12 -10q-121 -25 -418 -543q-51 -90 -51 -168q0 -143 164 -143q152 0 303 100 q180 119 283 291q68 121 225 405q27 49 72 64q90 31 123 31q12 0 12 -13q0 -8 -8 -8q-27 -4 -43 -25q-172 -211 -312 -489q-100 -201 -100 -289q0 -94 88 -94q49 0 113 27l61 28q12 0 12 -10q0 -8 -8 -10q-147 -66 -250 -66q-135 0 -135 105q0 76 82 205v4q0 2 -2 4 q-51 0 -106 -70q-72 -92 -97 -108q-199 -131 -374 -132q-90 0 -150 39q-70 45 -70 131zM1057 995q0 2 6 9l315 253q8 4 11 5q16 0 16 -21q0 -4 -6 -10q-121 -92 -328 -236q-8 -4 -10 -4q-4 0 -4 4z" />
<glyph unicode="&#xdb;" d="M188 147q0 74 82 211q12 18 131 191q127 186 174 272q8 14 9 25q0 18 -31 18h-41q-68 -2 -53 -2q-10 0 -27 2h-22q-16 0 -17 13q0 12 15 12l163 -6q41 0 107 4q33 6 98 12q10 0 10 -8t-12 -10q-121 -25 -418 -543q-51 -90 -51 -168q0 -143 164 -143q152 0 303 100 q180 119 283 291q68 121 225 405q27 49 72 64q90 31 123 31q12 0 12 -13q0 -8 -8 -8q-27 -4 -43 -25q-172 -211 -312 -489q-100 -201 -100 -289q0 -94 88 -94q49 0 113 27l61 28q12 0 12 -10q0 -8 -8 -10q-147 -66 -250 -66q-135 0 -135 105q0 76 82 205v4q0 2 -2 4 q-51 0 -106 -70q-72 -92 -97 -108q-199 -131 -374 -132q-90 0 -150 39q-70 45 -70 131zM952 1006q0 10 17 24q61 53 151 144q43 43 66 57q8 4 10 4q8 0 8 -10q0 -33 5 -99.5t5 -99.5q0 -20 -24 -45q-10 -10 -16 -10t-7 14q0 -18 -6 184q0 12 -8 13q-4 0 -10 -6 q-80 -72 -158 -160q-18 -20 -24 -23q-9 1 -9 13z" />
<glyph unicode="&#xdc;" d="M188 147q0 74 82 211q12 18 131 191q127 186 174 272q8 14 9 25q0 18 -31 18h-41q-68 -2 -53 -2q-10 0 -27 2h-22q-16 0 -17 13q0 12 15 12l163 -6q41 0 107 4q33 6 98 12q10 0 10 -8t-12 -10q-121 -25 -418 -543q-51 -90 -51 -168q0 -143 164 -143q152 0 303 100 q180 119 283 291q68 121 225 405q27 49 72 64q90 31 123 31q12 0 12 -13q0 -8 -8 -8q-27 -4 -43 -25q-172 -211 -312 -489q-100 -201 -100 -289q0 -94 88 -94q49 0 113 27l61 28q12 0 12 -10q0 -8 -8 -10q-147 -66 -250 -66q-135 0 -135 105q0 76 82 205v4q0 2 -2 4 q-51 0 -106 -70q-72 -92 -97 -108q-199 -131 -374 -132q-90 0 -150 39q-70 45 -70 131zM903 1069q0 27 20.5 50.5t47.5 23.5t26 -25q0 -25 -22.5 -49.5t-46.5 -24.5q-25 0 -25 25zM1112 1061q0 27 20.5 50.5t47.5 23.5t26 -25q0 -25 -22.5 -49.5t-46.5 -24.5q-25 0 -25 25z " />
<glyph unicode="&#xdd;" horiz-adv-x="935" d="M168 713q0 6 4 12q115 174 297 174q125 0 190.5 -74.5t65.5 -199.5q0 -102 -14 -170q-2 -14 8 -15q6 0 10 4l88 82l148 140q186 176 239 221q190 162 264 162q25 0 55.5 -15.5t30.5 -38.5q0 -6 -4 -6t-17 3t-22 3q-63 0 -182 -71q-276 -166 -569 -500q-35 -39 -66 -102 q-51 -104 -88 -209q-10 -33 -18 -66q-16 -53 -31 -49q-16 4 -31 4q-66 0 -96 -41q-2 -4 -10 -4q-12 0 -12 12q0 -8 43 56q188 279 188 514q0 301 -248 301q-90 0 -151 -60q-25 -33 -58 -71q-4 -2 -8 -2q-6 0 -6 6zM891 948q0 2 6 8l324 258q18 0 18 -18q0 -6 -6 -12 q-121 -92 -328 -236q-8 -4 -10 -4q-4 0 -4 4z" />
<glyph unicode="&#xde;" horiz-adv-x="661" d="M106 29q0 10 7 24q18 39 225 422q92 170 158 328q6 14 6 26q0 29 -41 29q-20 0 -59.5 -2t-59.5 -2q-14 0 -14 12q0 10 14 11q49 0 135 8q96 10 135 12q16 0 17 -10q-47 -96 -101 -201v-2q-2 0 -2 -2q0 -4 6 -4h5q51 18 108 18q104 0 172 -39q82 -47 82 -145 q0 -96 -78 -172q-66 -66 -168 -100q-90 -31 -184 -31h-29q-37 4 -57 14q-6 2 -6 8q0 8 8 9h2q0 -2 2 -2q20 -8 55 -13h19q209 0 307 176q31 55 31 129q0 20 -2 33q-16 98 -129 113q-4 0 -13 2h-12q-119 0 -151 -62q-102 -195 -213 -417q-20 -41 -50 -117q-4 -10 -4 -27 q0 -49 97 -49q8 -8 8 -12q-2 -4 -8 -4h-142q-76 6 -76 39z" />
<glyph unicode="&#xdf;" horiz-adv-x="706" d="M-825 -850q0 4 4 4q2 0 35.5 -24.5t48.5 -28.5q53 -14 80 -10l12 2q39 6 141 24q113 39 197 129q123 131 262 373q78 133 240 469q-27 35 -33 80v8q-2 6 -2 8q0 16 8 37q35 86 92 162q10 12 19 12q6 0 6 -6q0 -8 -9 -16q-78 -78 -77 -162q0 -41 18 -78l31 64 q268 557 551 845q137 141 209 142q57 0 57 -51q0 -53 -80 -148q-100 -117 -356 -416q-39 -45 -39 -84q0 -53 100 -106q80 -43 80 -123q0 -141 -156 -225q-76 -41 -180 -41q-113 0 -188 51q-61 -113 -144 -250q-127 -215 -243 -375q-258 -354 -502 -354h-2q-109 0 -174 74 q-6 6 -6 14zM262 74q66 -66 193 -66q98 0 168 51q78 57 77 152v8q0 84 -98 125q-90 37 -90 94q0 39 47 90q317 340 391 463q25 41 25 78q0 12 -2 16q-8 31 -39 31q-8 0 -14 -2q-92 -20 -220 -237q-180 -307 -274 -496q-49 -98 -164 -307z" />
<glyph unicode="&#xe0;" horiz-adv-x="518" d="M82 63q0 20 10 52q63 186 225 276q68 37 129 43h13q31 51 84 51q-16 -29 -29 -53q27 -2 57 -18q-2 -4 -6 -4q-2 0 -2 2h-4q-16 2 -53 4q-14 -27 -66 -135q-76 -160 -75 -222q0 -47 41 -47q16 0 30 6q154 61 287 265q4 8 10 8t6 -6q0 -4 -4 -11q-61 -90 -155 -176 q-123 -111 -199 -110q-78 0 -78 92q0 39 19 88q-123 -152 -197 -152q-43 0 -43 47zM154 70q0 -18 12 -19q8 0 22 10q92 68 193 240l68 117h-3q-57 0 -108 -43q-121 -102 -180 -283q-4 -20 -4 -22zM322 741q0 12 10 25q6 6 10 6q6 0 8 -8q33 -76 86 -232v-4q0 -4 -2 -4t-6 4 q-61 113 -100 191q-6 12 -6 22z" />
<glyph unicode="&#xe1;" horiz-adv-x="518" d="M82 63q0 20 10 52q63 186 225 276q68 37 129 43h13q31 51 84 51q-16 -29 -29 -53q27 -2 57 -18q-2 -4 -6 -4q-2 0 -2 2h-4q-16 2 -53 4q-14 -27 -66 -135q-76 -160 -75 -222q0 -47 41 -47q16 0 30 6q154 61 287 265q4 8 10 8t6 -6q0 -4 -4 -11q-61 -90 -155 -176 q-123 -111 -199 -110q-78 0 -78 92q0 39 19 88q-123 -152 -197 -152q-43 0 -43 47zM154 70q0 -18 12 -19q8 0 22 10q92 68 193 240l68 117h-3q-57 0 -108 -43q-121 -102 -180 -283q-4 -20 -4 -22zM389 582q0 2 6 8l316 254q8 4 10 4q16 0 16 -21q0 -4 -6 -10 q-121 -92 -328 -235q-8 -4 -10 -4q-4 0 -4 4z" />
<glyph unicode="&#xe2;" horiz-adv-x="518" d="M82 63q0 20 10 52q63 186 225 276q68 37 129 43h13q31 51 84 51q-16 -29 -29 -53q27 -2 57 -18q-2 -4 -6 -4q-2 0 -2 2h-4q-16 2 -53 4q-14 -27 -66 -135q-76 -160 -75 -222q0 -47 41 -47q16 0 30 6q154 61 287 265q4 8 10 8t6 -6q0 -4 -4 -11q-61 -90 -155 -176 q-123 -111 -199 -110q-78 0 -78 92q0 39 19 88q-123 -152 -197 -152q-43 0 -43 47zM154 70q0 -18 12 -19q8 0 22 10q92 68 193 240l68 117h-3q-57 0 -108 -43q-121 -102 -180 -283q-4 -20 -4 -22zM348 582q0 10 19 26q61 53 151 144q43 43 66 57q8 4 10 4q8 0 8 -10 q0 -33 5 -99.5t5 -99.5q0 -20 -24 -45q-10 -10 -17 -10q-6 0 -6 14q0 -18 -6 185q0 12 -8 12q-4 0 -10 -6q-80 -72 -158 -160q-20 -23 -27 -23q-8 1 -8 11z" />
<glyph unicode="&#xe3;" horiz-adv-x="518" d="M82 63q0 20 10 52q63 186 225 276q68 37 129 43h13q31 51 84 51q-16 -29 -29 -53q27 -2 57 -18q-2 -4 -6 -4q-2 0 -2 2h-4q-16 2 -53 4q-14 -27 -66 -135q-76 -160 -75 -222q0 -47 41 -47q16 0 30 6q154 61 287 265q4 8 10 8t6 -6q0 -4 -4 -11q-61 -90 -155 -176 q-123 -111 -199 -110q-78 0 -78 92q0 39 19 88q-123 -152 -197 -152q-43 0 -43 47zM154 70q0 -18 12 -19q8 0 22 10q92 68 193 240l68 117h-3q-57 0 -108 -43q-121 -102 -180 -283q-4 -20 -4 -22zM295 618q0 35 113 119q27 20 53 21q27 0 71 -39q31 -31 62 -60 q27 -18 51 -18q33 0 55.5 28.5t22.5 61.5q0 14 10 14q8 0 8 -10v-4q-8 -43 -24 -65q-45 -61 -99 -62q-35 0 -67 27q-18 18 -72 65q-23 20 -45 21q-23 0 -49 -21q-6 -4 -41 -44t-43 -40q-6 0 -6 6z" />
<glyph unicode="&#xe4;" horiz-adv-x="518" d="M82 63q0 84 80 189q74 94 155 139q66 37 129 43h13q31 51 84 51q-16 -29 -29 -53q27 -2 57 -18q-2 -4 -6 -4q-2 0 -2 2h-4q-16 2 -53 4q-14 -27 -66 -135q-76 -160 -75 -222q0 -47 41 -47q16 0 30 6q156 66 287 265q4 8 10 8t6 -6q0 -4 -4 -11q-61 -90 -155 -176 q-123 -111 -199 -110q-78 0 -78 92q0 39 19 88q-123 -152 -197 -152q-43 0 -43 47zM154 70q0 -18 12 -19q8 0 22 10q92 68 193 240l68 117h-3q-57 0 -108 -43q-121 -102 -180 -283q-4 -20 -4 -22zM438 676q0 27 20.5 51.5t47.5 24.5t26 -27q0 -25 -22.5 -49.5t-46.5 -24.5 q-25 0 -25 25zM586 664q0 27 20.5 51t46.5 24q27 0 27 -26q0 -25 -22.5 -49.5t-47.5 -24.5q-24 0 -24 25z" />
<glyph unicode="&#xe5;" horiz-adv-x="518" d="M82 63q0 84 80 189q74 94 155 139q66 37 129 43h13q31 51 84 51q-16 -29 -29 -53q27 -2 57 -18q-2 -4 -6 -4q-2 0 -2 2h-4q-16 2 -53 4q-14 -27 -66 -135q-76 -160 -75 -222q0 -47 41 -47q16 0 30 6q154 61 287 265q4 8 10 8t6 -6q0 -4 -4 -11q-61 -90 -155 -176 q-123 -111 -199 -110q-78 0 -78 92q0 39 19 88q-123 -152 -197 -152q-43 0 -43 47zM154 70q0 -18 12 -19q8 0 22 10q92 68 193 240l68 117h-3q-57 0 -108 -43q-121 -102 -180 -283q-4 -20 -4 -22zM451 678q0 47 37.5 83t84.5 36q78 0 78 -74q0 -49 -35.5 -85t-85.5 -36 q-79 0 -79 76zM481 682q0 -51 56 -51q66 0 81 69q2 6 3 17q0 53 -54 53q-68 0 -84 -70q-2 -6 -2 -18z" />
<glyph unicode="&#xe6;" horiz-adv-x="638" d="M84 49q0 16 6 35q39 121 117 223q100 131 205 131q16 0 25 -6l9 -6q2 0 5 2q27 57 55 104q12 18 31 21l55 6q12 0 12 -6q-2 -4 -10 -10q-23 -12 -96 -123l-4 -4h2q2 0 8 4q68 45 137 45h4q27 0 27 -23q0 -14 -4 -24q-55 -147 -187 -191q-35 -6 -75 -30q-12 -53 -13 -88 q0 -20 4 -46q14 -82 88 -81q98 0 232 131q82 80 114 149q6 10 11 10q6 -2 6 -6t-4 -10q-33 -63 -109 -141t-139 -119q-82 -51 -150 -51q-135 0 -135 133q0 53 23 117v6l-4 -4q-84 -102 -86 -107q-57 -59 -111 -78q-12 -4 -16 -4q-33 0 -33 41zM164 88q0 -23 18 -22 q12 0 29 16q121 125 199 272q8 16 8 23q0 35 -37 35q-53 0 -129 -127q-61 -102 -84 -179q-4 -14 -4 -18zM418 238q0 -8 8 -9q39 0 94 58q68 72 68 133q0 12 -10 12q-27 0 -82 -37q-23 -14 -45 -65q-20 -41 -31 -76q-2 -6 -2 -16z" />
<glyph unicode="&#xe7;" horiz-adv-x="417" d="M100 -262q2 4 11 8q137 41 137 90q0 10 -51 47q-12 8 -13 23q0 12 13 24q41 41 71 58q-27 -6 -53 -6q-106 0 -106 98q0 39 16 80q84 207 272 286q25 10 39 11q51 0 74 -56q4 -10 4 -14q0 -10 -10 -18q-55 -43 -51 -43q-6 0 -7 8v4q2 6 3 16q0 53 -68 54q-74 0 -143 -136 q-37 -72 -43 -147q-2 -25 -2 -23q0 -86 75 -86q23 0 54 11q143 49 311 258q6 6 10 6t4 -4t-4 -13q-170 -209 -315 -266q-20 -8 -64 -35q-20 -14 -20 -26q0 -16 26 -29q39 -18 39 -43q0 -20 -26 -43q-80 -68 -152 -102q-8 -4 -14 -4q-17 0 -17 12z" />
<glyph unicode="&#xe8;" horiz-adv-x="419" d="M90 63q0 27 4 46q23 106 113 213q102 123 201 122q61 0 61 -36q0 -84 -250 -142q-47 -88 -47 -168q0 -84 76 -84q88 0 194 78q88 63 154 150q2 6 10 6q6 0 6 -6q0 -4 -4 -9q-78 -98 -188 -172q-127 -84 -234 -84q-96 0 -96 86zM227 281q145 29 164 104q0 2 2 6v4 q0 23 -18 25q-2 0 -2 2h-4q-23 0 -52 -25q-51 -44 -90 -116zM319 741q0 12 11 25q6 6 10 6q6 0 8 -8q33 -76 86 -232v-4q0 -4 -2 -4t-6 4q-61 113 -100 191q-7 12 -7 22z" />
<glyph unicode="&#xe9;" horiz-adv-x="419" d="M90 63q0 27 4 46q23 106 113 213q102 123 201 122q61 0 61 -36q0 -84 -250 -142q-47 -88 -47 -168q0 -84 76 -84q88 0 194 78q88 63 154 150q2 6 10 6q6 0 6 -6q0 -4 -4 -9q-78 -98 -188 -172q-127 -84 -234 -84q-96 0 -96 86zM227 281q145 29 164 104q0 2 2 6v4 q0 23 -18 25q-2 0 -2 2h-4q-23 0 -52 -25q-51 -44 -90 -116zM303 580q0 2 6 8l316 254q8 4 10 4q16 0 16 -21q0 -4 -6 -10q-121 -92 -328 -235l-10 -5q-4 1 -4 5z" />
<glyph unicode="&#xea;" horiz-adv-x="419" d="M90 63q0 27 4 46q23 106 113 213q102 123 201 122q61 0 61 -36q0 -84 -250 -142q-47 -88 -47 -168q0 -84 76 -84q88 0 194 78q88 63 154 150q2 6 10 6q6 0 6 -6q0 -4 -4 -9q-78 -98 -188 -172q-127 -84 -234 -84q-96 0 -96 86zM227 281q145 29 164 104q0 2 2 6v4 q0 23 -18 25q-2 0 -2 2h-4q-23 0 -52 -25q-51 -44 -90 -116zM293 582q0 10 18 26q61 53 152 144q43 43 65 57q8 4 11 4q8 0 8 -10q0 -33 5 -99.5t5 -99.5q0 -20 -25 -45q-10 -10 -16 -10t-6 14q0 -18 -6 185q0 12 -8 12q-4 0 -11 -6q-80 -72 -157 -160q-20 -23 -27 -23 q-8 1 -8 11z" />
<glyph unicode="&#xeb;" horiz-adv-x="419" d="M90 63q0 27 4 46q23 106 113 213q102 123 201 122q61 0 61 -36q0 -84 -250 -142q-47 -88 -47 -168q0 -84 76 -84q88 0 194 78q88 63 154 150q2 6 10 6q6 0 6 -6q0 -4 -4 -9q-78 -98 -188 -172q-127 -84 -234 -84q-96 0 -96 86zM227 281q145 29 164 104q0 2 2 6v4 q0 23 -18 25q-2 0 -2 2h-4q-23 0 -52 -25q-51 -44 -90 -116zM360 676q0 27 20.5 51.5t47.5 24.5q29 0 29 -27q0 -8 -2 -12q-14 -47 -54 -60q-4 -2 -14 -2q-20 0 -25 17v4q-2 2 -2 4zM508 662q0 47 47 75q10 6 20 6q27 0 27 -28q0 -51 -47 -72q-12 -4 -23 -4q-20 0 -22 14v4 q-2 3 -2 5z" />
<glyph unicode="&#xec;" horiz-adv-x="370" d="M94 61q0 31 23 82q57 129 145 256q20 31 55 37q2 0 5 2h2q14 0 14 -12q0 -8 -6 -18q-111 -174 -148 -306q-6 -23 -6 -34q0 -47 49 -48q41 0 92 29q145 80 248 221q6 6 8 6q4 -2 5 -6q0 -4 -5 -10q-98 -127 -229 -213q-84 -55 -162 -55q-90 -1 -90 69zM242 741q0 31 22 31 q6 0 8 -8q33 -76 86 -232v-4q0 -4 -2 -4t-6 4q-61 113 -100 191q-8 16 -8 22z" />
<glyph unicode="&#xed;" horiz-adv-x="370" d="M94 61q0 31 23 82q57 129 145 256q20 31 55 37q2 0 5 2h2q14 0 14 -12q0 -8 -6 -18q-111 -174 -148 -306q-6 -23 -6 -34q0 -47 49 -48q41 0 92 29q145 80 248 221q6 6 8 6q4 -2 5 -6q0 -4 -5 -10q-98 -127 -229 -213q-84 -55 -162 -55q-90 -1 -90 69zM295 559q0 2 6 8 l315 254q8 4 11 4q16 0 16 -20q0 -4 -6 -10q-121 -92 -328 -236q-8 -4 -10 -4q-4 0 -4 4z" />
<glyph unicode="&#xee;" horiz-adv-x="370" d="M94 61q0 31 23 82q57 129 145 256q20 31 55 37q2 0 5 2h2q14 0 14 -12q0 -8 -6 -18q-111 -174 -148 -306q-6 -23 -6 -34q0 -47 49 -48q41 0 92 29q145 80 248 221q6 6 8 6q4 -2 5 -6q0 -4 -5 -10q-98 -127 -229 -213q-84 -55 -162 -55q-90 -1 -90 69zM250 582q0 12 16 26 q61 53 152 144q43 43 65 57q8 4 11 4q8 0 8 -10q0 -33 5 -99.5t5 -99.5q0 -20 -25 -45q-10 -10 -16 -10t-6 14q0 -18 -6 185q0 12 -8 12q-4 0 -11 -6q-80 -72 -157 -160q-18 -20 -25 -23q-8 1 -8 11z" />
<glyph unicode="&#xef;" horiz-adv-x="370" d="M94 61q0 31 23 82q57 129 145 256q20 31 55 37q2 0 5 2h2q14 0 14 -12q0 -8 -6 -18q-111 -174 -148 -306q-6 -23 -6 -34q0 -47 49 -48q41 0 92 29q145 80 248 221q6 6 8 6q4 -2 5 -6q0 -4 -5 -10q-98 -127 -229 -213q-84 -55 -162 -55q-90 -1 -90 69zM283 676 q0 27 19.5 51.5t45.5 24.5q29 0 29 -27q0 -25 -22.5 -49.5t-47.5 -24.5q-24 0 -24 25zM432 676q0 27 20.5 51.5t47.5 24.5t26 -27q0 -25 -22.5 -49.5t-46.5 -24.5q-25 0 -25 25z" />
<glyph unicode="&#xf0;" horiz-adv-x="342" d="M90 63q0 102 125 250q51 59 131 101q57 29 98 37q14 2 15 20q0 82 -27 160q-20 59 -78 184q-76 -25 -133 -47q-10 -4 -16 -4q-14 0 -29 20q-2 2 -2 9q6 2 41 10q72 18 129 35q-72 152 -137 260q-14 25 -37 28q-6 0 -6 9q2 4 8 4q8 -2 33 -2q6 0 20.5 2t20.5 2 q10 0 18 -15q76 -139 135 -270q147 49 174 49q16 0 19 -16v-6q0 -10 -6 -11q-2 0 -4 2h-7q-14 0 -165 -43q29 -61 94 -215q31 -76 31 -161q0 -127 -85 -255t-204 -180q-51 -23 -88 -22q-68 -1 -68 65zM164 55q0 -33 31 -32q39 0 92 45q45 37 71 79q98 154 99 277v2q0 6 -8 6 q-63 0 -146 -94q-66 -76 -113 -182q-26 -60 -26 -101z" />
<glyph unicode="&#xf1;" horiz-adv-x="542" d="M47 23q0 14 10 32q37 53 107 164q43 90 110 215q6 10 17 10q33 0 33 -28q0 14 -78 -164q135 121 256 197q8 4 14 4q23 0 23 -23q0 -10 -11 -24q-119 -176 -168 -314q-8 -23 -8 -39q0 -51 51 -51q25 0 58 16q164 84 278 258q2 4 9 5q6 0 6 -7q0 -4 -4 -10 q-121 -166 -275 -256q-84 -49 -141 -49q-66 0 -66 59q0 45 43 119q80 137 107 213v6q0 6 -4 6q-2 0 -6 -2q-109 -72 -189 -163q-41 -74 -133 -215q-10 -10 -12 -11q-10 0 -18.5 20t-8.5 32zM274 618q0 6 9 17q41 53 106 102q27 20 53 21q25 0 70 -39q31 -31 61 -60 q27 -18 52 -18q35 0 56 27.5t21 62.5q0 14 13 14q8 0 8 -10v-2q-2 0 -2 -2q-8 -43 -25 -65q-45 -61 -98 -62q-33 0 -66 27q-18 18 -71 65q-23 20 -47 21q-23 0 -49 -21q-6 -4 -41 -44t-43 -40q-7 0 -7 6z" />
<glyph unicode="&#xf2;" horiz-adv-x="524" d="M90 57q-2 113 121 260q86 104 217 119q6 57 41 64q16 2 39 10q2 2 6 2q10 0 10 -10q-12 -31 -26 -80q-4 -29 -4 -55q0 -139 106 -131q86 6 162 110q2 6 8 6q4 -2 4 -6q0 -2 -2 -6q-92 -125 -199 -125q-82 0 -122 70q-119 -233 -240 -291q-35 -16 -61 -17q-58 0 -60 80z M160 39q0 -31 28 -31q59 0 146 129q68 100 100 189q-8 27 -8 71v19q-10 2 -8 2h-2q-86 0 -189 -174q-69 -117 -67 -205zM326 741q0 12 10 25q6 6 10 6q6 0 8 -8q33 -76 86 -232q0 -2 2 -2v-2q0 -4 -4 -4q-2 0 -6 4q-61 113 -100 191q-6 12 -6 22z" />
<glyph unicode="&#xf3;" horiz-adv-x="524" d="M90 51v6q0 117 121 260q86 104 217 119q6 57 41 64q16 2 39 10q2 2 6 2q10 0 10 -10q-12 -31 -26 -80q-4 -29 -4 -55q0 -131 96 -131q94 0 172 110q2 6 8 6q4 -2 4 -6q0 -2 -2 -6q-92 -125 -199 -125q-82 0 -122 70q-160 -307 -301 -308q-60 0 -60 74zM160 47 q0 -39 28 -39q59 0 146 129q68 100 100 189q-8 27 -8 71v19q-10 2 -8 2h-2q-86 0 -189 -174q-69 -117 -67 -197zM356 580q0 2 6 8l316 254q8 4 10 4q16 0 17 -21q0 -4 -7 -10q-121 -92 -327 -235q-8 -4 -11 -5q-4 1 -4 5z" />
<glyph unicode="&#xf4;" horiz-adv-x="524" d="M90 57q-2 113 121 260q86 104 217 119q6 57 41 64q16 2 39 10q2 2 6 2q10 0 10 -10q-12 -31 -26 -80q-4 -29 -4 -55q0 -131 96 -131q94 0 172 110q2 6 8 6q4 -2 4 -6q0 -2 -2 -6q-92 -125 -199 -125q-82 0 -122 70q-160 -307 -301 -308q-58 0 -60 80zM160 39 q0 -31 28 -31q59 0 146 129q68 100 100 189q-8 27 -8 71v19q-10 2 -8 2h-2q-86 0 -189 -174q-69 -117 -67 -205zM375 582q0 10 18 26q61 53 152 144q43 43 65 57q8 4 11 4q8 0 8 -10q0 -33 5 -99.5t5 -99.5q0 -20 -25 -45q-10 -10 -16 -10t-6 14q0 -18 -6 185q0 12 -8 12 q-4 0 -11 -6q-80 -72 -157 -160q-20 -23 -27 -23q-8 1 -8 11z" />
<glyph unicode="&#xf5;" horiz-adv-x="524" d="M90 57q-2 113 121 260q86 104 217 119q6 57 41 64q16 2 39 10q2 2 6 2q10 0 10 -10q-12 -31 -26 -80q-4 -29 -4 -55q0 -131 96 -131q94 0 172 110q2 6 8 6q4 -2 4 -6q0 -2 -2 -6q-92 -125 -199 -125q-82 0 -122 70q-160 -307 -301 -308q-58 0 -60 80zM160 39 q0 -31 28 -31q59 0 146 129q68 100 100 189q-8 27 -8 71v19q-4 2 -10 2q-86 -2 -189 -174q-69 -117 -67 -205zM287 618q0 33 114 119q27 20 54 21q25 0 69 -39q31 -31 62 -60q27 -18 51 -18q33 0 55.5 28.5t22.5 61.5q0 14 10 14t10 -10v-2q-2 0 -2 -2q-8 -43 -24 -65 q-45 -61 -99 -62q-33 0 -65 27q-18 18 -72 65q-23 20 -47 21q-23 0 -49 -21q-6 -4 -41 -44t-43 -40q-6 0 -6 6z" />
<glyph unicode="&#xf6;" horiz-adv-x="524" d="M90 57q-2 113 121 260q86 104 217 119q6 57 41 64q16 2 39 10q2 2 6 2q10 0 10 -10q-12 -31 -26 -80q-4 -29 -4 -55q0 -131 96 -131q94 0 172 110q2 6 8 6q4 -2 4 -6q0 -2 -2 -6q-92 -125 -199 -125q-82 0 -122 70q-119 -233 -240 -291q-35 -16 -61 -17q-58 0 -60 80z M160 47q0 -39 28 -39q59 0 146 129q68 100 100 189q-8 27 -8 71v19l-8 2q-92 -2 -191 -174q-69 -121 -67 -197zM434 676q0 27 20.5 51.5t47.5 24.5t26 -27q0 -25 -22.5 -49.5t-46.5 -24.5q-25 0 -25 25zM582 664q0 27 20.5 51t46.5 24q27 0 27 -26q0 -25 -22.5 -49.5 t-47.5 -24.5q-24 0 -24 25z" />
<glyph unicode="&#xf7;" horiz-adv-x="819" d="M274 254v61h570v-61h-570zM496 47q0 63 63 64q63 0 64 -64q0 -63 -64 -63q-63 0 -63 63zM496 522q0 63 63 64q63 0 64 -64q0 -63 -64 -63q-63 0 -63 63z" />
<glyph unicode="&#xf8;" horiz-adv-x="524" d="M90 -47q0 8 6 14l74 70v10q-2 6 -2 8q0 117 121 262q53 66 143 101q47 18 80 18q37 0 51 -18l62 61q6 6 14 6t8 -8q0 -6 -76 -78v-8q0 -23 -10 -45q-55 -125 -131 -227q-106 -143 -199 -144q-39 0 -55 39q-39 -39 -59 -63q-8 -8 -17 -8q-10 0 -10 10zM238 49 q0 -41 26 -41q68 0 154 137q55 88 100 199q4 8 4 10l-282 -274q-2 -13 -2 -31zM248 109l278 272v2q0 35 -28 35h-4q-18 0 -45 -15q-70 -39 -142 -159q-45 -78 -59 -135z" />
<glyph unicode="&#xf9;" horiz-adv-x="524" d="M113 61q0 27 12 60q53 143 156 303q12 18 30 18q35 0 35 -26q0 -8 -94 -172q-82 -141 -82 -185q0 -31 25 -30q25 0 57 32q70 70 137 201q39 76 76 135q8 14 16 15q8 0 17 -11q18 -25 18 -47q0 -27 -39 -78q-20 -25 -57 -73q-68 -94 -68 -195q0 -45 37 -45q78 0 215 133 q80 78 133 158q2 6 8 6t7 -8l-4 -8q-217 -301 -379 -301q-70 0 -70 75q0 39 20 93q-84 -109 -153 -109q-53 0 -53 59zM309 741q0 12 10 25q6 6 11 6q6 0 8 -8q33 -76 86 -232q0 -2 2 -2v-2q0 -4 -4 -4q-2 0 -6 4q-61 113 -101 191q-6 12 -6 22z" />
<glyph unicode="&#xfa;" horiz-adv-x="524" d="M113 61q0 27 12 60q53 143 156 303q12 18 30 18q35 0 35 -26q0 -8 -94 -172q-82 -141 -82 -185q0 -31 25 -30q25 0 57 32q70 70 137 201q39 76 76 135q8 14 16 15q8 0 17 -11q18 -25 18 -47q0 -27 -39 -78q-20 -25 -57 -73q-68 -94 -68 -195q0 -45 37 -45q78 0 215 133 q80 78 133 158q2 6 8 6t7 -8l-4 -8q-217 -301 -379 -301q-70 0 -70 75q0 39 20 93q-84 -109 -153 -109q-53 0 -53 59zM428 559q0 2 6 8l316 254q8 4 10 4q16 0 16 -20q0 -4 -6 -10q-121 -92 -328 -236q-8 -4 -10 -4q-4 0 -4 4z" />
<glyph unicode="&#xfb;" horiz-adv-x="524" d="M113 61q0 27 12 60q53 143 156 303q12 18 30 18q35 0 35 -26q0 -8 -94 -172q-82 -141 -82 -185q0 -31 25 -30q25 0 57 32q70 70 137 201q39 76 76 135q8 14 16 15q8 0 17 -11q18 -25 18 -47q0 -27 -39 -78q-20 -25 -57 -73q-68 -94 -68 -195q0 -45 37 -45q78 0 215 133 q80 78 133 158q2 6 8 6t7 -8l-4 -8q-217 -301 -379 -301q-70 0 -70 75q0 39 20 93q-84 -109 -153 -109q-53 0 -53 59zM350 582q0 10 19 26q61 53 151 144q43 43 66 57q8 4 10 4q8 0 8 -10q0 -33 5 -99.5t5 -99.5q0 -20 -24 -45q-10 -10 -17 -10q-6 0 -6 14q0 -18 -6 185 q0 12 -8 12q-4 0 -10 -6q-80 -72 -158 -160q-20 -23 -27 -23q-8 1 -8 11z" />
<glyph unicode="&#xfc;" horiz-adv-x="524" d="M113 61q0 27 12 60q53 143 156 303q12 18 30 18q35 0 35 -26q0 -8 -94 -172q-82 -141 -82 -185q0 -31 25 -30q25 0 57 32q70 70 137 201q39 76 76 135q8 14 16 15q8 0 17 -11q18 -25 18 -47q0 -27 -39 -78q-20 -25 -57 -73q-68 -94 -68 -195q0 -45 37 -45q78 0 215 133 q80 78 133 158q2 6 8 6t7 -8l-4 -8q-217 -301 -379 -301q-70 0 -70 75q0 39 20 93q-84 -109 -153 -109q-53 0 -53 59zM432 676q0 27 20.5 51.5t47.5 24.5t26 -27q0 -25 -22.5 -49.5t-46.5 -24.5q-25 0 -25 25zM580 664q0 27 20.5 51t46.5 24q27 0 27 -26q0 -25 -22.5 -49.5 t-47.5 -24.5q-24 0 -24 25z" />
<glyph unicode="&#xfd;" horiz-adv-x="475" d="M-791 -748q0 27 7 72q2 8 6 8t4 -6q2 -70 67 -110q57 -35 132 -35q221 0 466 315q133 170 218 307l172 279q2 2 2 4h-2q-2 0 -7 -2q-66 -53 -122 -53q-57 0 -58 47q0 18 10 43q23 53 95 164q2 4 53 82q12 18 24.5 21t25.5 6t17 3q8 0 9 -6q0 -4 -4 -10 q-41 -63 -98.5 -160.5t-57.5 -140.5q0 -23 20 -23q39 0 91 45q23 20 45 62q31 59 110 201q59 106 82 106q4 -2 5 -9t14 -26q4 -8 4 -14q0 -12 -7 -23q-57 -100 -135 -192q-51 -61 -135 -197q-440 -715 -678 -848q-98 -55 -194 -55q-74 0 -123 35q-56 38 -58 110zM420 559 q0 2 6 8l315 254q8 4 11 4q16 0 16 -20q0 -4 -6 -10q-121 -92 -328 -236q-8 -4 -10 -4q-4 0 -4 4z" />
<glyph unicode="&#xfe;" horiz-adv-x="497" d="M-311 -641q0 25 14 49q70 125 182 295l199 301q29 43 27 74v8q0 16 26 25q12 2 45 57q274 463 275 549q0 47 -43 47q-37 0 -76 -31q-4 -4 -6 -4q-8 0 -8 6q0 2 6 8q88 61 164 62q57 0 57 -51q0 -53 -125 -256q-55 -90 -129 -213q-2 -6 0 -6q-68 0 76.5 77.5t179.5 77.5 q33 0 31 -31q-4 -57 -70 -163q-57 -96 -108 -144q-78 -74 -185 -106q-27 -8 -49 -8q-8 0 -25 4q-4 2 -12 2q-10 0 -16 -8q-164 -258 -320 -564q-45 -88 -45 -114q0 -10 8.5 -20.5t8.5 -12.5q0 -6 -7 -6q-27 0 -63 55q-12 18 -12 41zM176 74q0 -20 18.5 -38t38.5 -18 q45 0 115 82q47 55 84 121q57 100 57 152q0 12 -10 12q-4 0 -12 -4q-123 -66 -209 -168q-8 -10 -35 -51q-12 -18 -41 -66q-6 -8 -6 -22z" />
<glyph unicode="&#xff;" horiz-adv-x="475" d="M-791 -733q0 8 7 57q2 8 6 8t4 -6q2 -70 67 -110q57 -35 132 -35q221 0 466 315q133 170 218 307l172 279q2 2 2 4h-2q-2 0 -7 -2q-68 -53 -122 -53q-57 0 -58 47q0 18 10 43q23 53 95 164q2 4 53 82q12 18 26.5 21t30.5 7q4 2 10 2q8 0 9 -6q0 -4 -4 -10 q-41 -63 -98.5 -160.5t-57.5 -140.5q0 -23 20 -23q39 0 91 45q23 20 45 62q31 59 110 201q59 106 82 106q2 0 4 -9t6 -13l4 -7q4 0 6.5 -7t2.5 -13q0 -12 -7 -23q-57 -100 -135 -192q-51 -61 -135 -197q-440 -715 -678 -848q-98 -55 -194 -55q-74 0 -123 35q-57 39 -58 110 v15zM373 676q0 27 20.5 51.5t46.5 24.5q27 0 27 -27q0 -25 -22.5 -49.5t-47.5 -24.5q-24 0 -24 25zM520 664q0 27 20.5 51t47.5 24t26 -26q0 -25 -22.5 -49.5t-46.5 -24.5q-25 0 -25 25z" />
<glyph unicode="&#x152;" horiz-adv-x="1673" d="M211 242q0 121 90 278q78 135 184 238q156 152 385 151q291 0 330 -186q6 -29 6 -76q0 -27 -2 -41q59 119 129 246q18 35 66 35q55 0 194 6q123 4 193 4h35q14 0 14 -10q-4 -4 -27 -56q-2 -6 -10 -6q-4 0 -9 10.5t-17 12.5q-84 18 -285 18q-39 0 -53 -20 q-90 -129 -209 -346q-2 -2 -2 -8q0 -10 14 -11q59 -2 117 -2q117 0 166 4q66 6 131 27h8q6 0 6 -4q0 -2 -8 -16.5t-8 -22.5q-4 -16 -21 -16h-2q-41 0 -120 2t-120 2q-96 0 -172 -2q-16 0 -22 -13q-82 -145 -131 -260q-20 -47 -21 -82q0 -96 144 -96q162 0 366 55 q119 33 191 80q8 4 10 4q6 0 6 -6q-18 -18 -49 -59q-14 -27 -59 -37q-219 -49 -430 -57l-50 -2q-96 0 -178 14q-61 10 -61 63q0 37 26 84l9 15q-193 -186 -422 -187q-49 0 -119 15q-98 20 -155.5 89t-57.5 169zM313 209q0 -182 199 -211q29 -4 55 -4q180 0 332 141 q137 125 199 309q33 96 32 193q0 256 -264 256q-197 0 -368 -236q-185 -253 -185 -448z" />
<glyph unicode="&#x153;" horiz-adv-x="649" d="M72 68q0 16 6 38q33 115 133 224q113 119 221 119h10q57 -4 60 -70q0 -10 6 -10q2 0 8 6q29 29 81 56.5t87 27.5q39 0 39 -35q0 -76 -129 -154q-49 -29 -117 -53q-47 -16 -47 -133q0 -72 64 -72q78 0 188 82q94 70 149 148q6 6 11 6q8 0 8 -6q0 -4 -4 -9 q-72 -90 -170 -159q-119 -84 -211 -84q-88 0 -103 76v10q-2 8 -2 12t2 10v17q0 -2 -4 -4q-119 -119 -213 -119q-73 0 -73 76zM143 63q0 -45 35 -45q29 0 72 33q147 113 211 303q6 18 6 35q0 43 -43 43q-63 0 -131 -78q-102 -117 -139 -235q-11 -33 -11 -56zM473 244 q0 -6 10 -6q6 0 13 2q84 31 137 110q25 37 24 62v8q-4 10 -18 10h-4q-90 -14 -160 -180v-2q-2 -2 -2 -4z" />
<glyph unicode="&#x178;" horiz-adv-x="935" d="M168 713q0 6 4 12q115 174 297 174q125 0 190.5 -74.5t65.5 -199.5q0 -102 -14 -170q-2 -14 8 -15q6 0 10 4l88 82l148 140q186 176 239 221q190 162 264 162q25 0 55.5 -15.5t30.5 -38.5q0 -6 -4 -6t-17 3t-22 3q-63 0 -182 -71q-276 -166 -569 -500q-35 -39 -66 -102 q-51 -104 -88 -209q-10 -33 -18 -66q-16 -53 -31 -49q-16 4 -31 4q-66 0 -96 -41q-2 -4 -10 -4q-12 0 -12 12q0 -8 43 56q188 279 188 514q0 301 -248 301q-90 0 -151 -60q-25 -33 -58 -71q-4 -2 -8 -2q-6 0 -6 6zM776 1040q0 27 20.5 50.5t47.5 23.5t26 -24 q0 -25 -22.5 -49.5t-46.5 -24.5q-25 -1 -25 24zM985 1032q0 27 20.5 50.5t47.5 23.5t26 -25q0 -25 -22.5 -49t-46.5 -24q-25 -1 -25 24z" />
<glyph unicode="&#x2c6;" horiz-adv-x="471" d="M104 582q0 10 19 26q61 53 151 144q43 43 66 57q8 4 10 4q8 0 8 -10q0 -33 5.5 -99.5t5.5 -99.5q0 -20 -25 -45q-10 -10 -16 -10t-6 14q0 -18 -7 185q0 12 -8 12q-4 0 -10 -6q-80 -72 -158 -160q-20 -23 -26 -23q-9 1 -9 11z" />
<glyph unicode="&#x2dc;" horiz-adv-x="471" d="M14 618q0 6 9 17q41 53 106 102q27 20 53 21q25 0 70 -39q31 -31 61 -60q27 -18 52 -18q35 0 56 27.5t21 62.5q0 14 13 14q8 0 8 -10v-2q-2 0 -2 -2q-8 -43 -25 -65q-45 -61 -98 -62q-33 0 -66 27q-18 18 -71 65q-23 20 -47 21q-23 0 -50 -21q-6 -4 -40.5 -44t-43.5 -40 q-6 0 -6 6z" />
<glyph unicode="&#x2000;" horiz-adv-x="768" />
<glyph unicode="&#x2001;" horiz-adv-x="1536" />
<glyph unicode="&#x2002;" horiz-adv-x="768" />
<glyph unicode="&#x2003;" horiz-adv-x="1536" />
<glyph unicode="&#x2004;" horiz-adv-x="512" />
<glyph unicode="&#x2005;" horiz-adv-x="382" />
<glyph unicode="&#x2006;" horiz-adv-x="256" />
<glyph unicode="&#x2007;" horiz-adv-x="256" />
<glyph unicode="&#x2008;" horiz-adv-x="190" />
<glyph unicode="&#x2009;" horiz-adv-x="307" />
<glyph unicode="&#x200a;" horiz-adv-x="83" />
<glyph unicode="&#x2010;" horiz-adv-x="473" d="M217 272q0 18 25 19h2h51q10 0 27 -2h14q37 0 109.5 2t109.5 2q23 0 23 -14q0 -16 -27 -17h-96h-88q-111 -2 -129 -2q-21 0 -21 12z" />
<glyph unicode="&#x2011;" horiz-adv-x="473" d="M217 272q0 18 25 19h2h51q10 0 27 -2h14q37 0 109.5 2t109.5 2q23 0 23 -14q0 -16 -27 -17h-96h-88q-111 -2 -129 -2q-21 0 -21 12z" />
<glyph unicode="&#x2012;" horiz-adv-x="473" d="M217 272q0 18 25 19h2h51q10 0 27 -2h14q37 0 109.5 2t109.5 2q23 0 23 -14q0 -16 -27 -17h-96h-88q-111 -2 -129 -2q-21 0 -21 12z" />
<glyph unicode="&#x2013;" horiz-adv-x="1024" d="M115 260v31h1024v-31h-1024z" />
<glyph unicode="&#x2014;" horiz-adv-x="2048" d="M381 274q0 16 25 17h2h127l137 -2l1202 4q23 -6 22 -14q0 -16 -26 -17h-2h-29q-25 2 -43 2h-82q-96 0 -608 -2l-705 -2q-20 0 -20 14z" />
<glyph unicode="&#x2018;" horiz-adv-x="430" d="M371 559q0 154 215 377q4 4 10 4q10 0 10 -8q0 -6 -4 -8q-174 -156 -174 -299q0 -70 33 -93q6 -4 6 -14q0 -6 -2 -10q-37 -51 -53 -51q-4 0 -11 6q-30 41 -30 96z" />
<glyph unicode="&#x2019;" horiz-adv-x="430" d="M319 465q0 6 5 8q172 152 172 299q0 72 -31 92q-8 6 -8 15q0 4 4 10q37 51 51 51q6 0 12 -6q31 -39 31 -96q0 -154 -215 -377q-4 -4 -10 -4q-11 0 -11 8z" />
<glyph unicode="&#x201a;" horiz-adv-x="391" d="M111 -188q0 6 4 8q172 152 172 299q0 72 -31 92q-8 6 -8 14q0 4 4 11q37 51 51 51q6 0 12 -6q31 -39 31 -97q0 -154 -215 -377q-4 -4 -10 -4q-10 1 -10 9z" />
<glyph unicode="&#x201c;" horiz-adv-x="528" d="M297 539q0 154 215 376q4 4 10 5q10 0 10 -9q0 -6 -4 -8q-92 -82 -145 -182q-29 -53 -29 -121q0 -20 2 -29q6 -43 31 -59q6 -4 6 -14q0 -6 -2 -11q-37 -51 -53 -51q-4 0 -10 6q-31 42 -31 97zM467 539q0 154 215 376q4 4 10 5q10 0 10 -9q0 -6 -4 -8q-176 -158 -176 -303 q0 -20 2 -29q6 -41 33 -59q6 -4 6 -14q0 -6 -2 -11q-37 -51 -53 -51q-4 0 -10 6q-31 42 -31 97z" />
<glyph unicode="&#x201d;" horiz-adv-x="528" d="M281 465q0 6 4 8q174 170 174 303q0 20 -2 29q-4 23 -22 48l-17 26q0 4 4 10q37 51 51 51q6 0 12 -6q31 -39 31 -96q0 -154 -215 -377q-4 -4 -10 -4q-10 0 -10 8zM451 465q0 6 4 8q174 156 174 301q0 68 -33 90q-8 6 -8 15q0 4 4 10q37 51 51 51q6 0 12 -6q31 -39 31 -96 q0 -154 -215 -377q-4 -4 -10 -4q-10 0 -10 8z" />
<glyph unicode="&#x201e;" horiz-adv-x="528" d="M76 -188q0 6 4 8q174 156 174 303q0 20 -2 29q-4 23 -22 48l-17 25q0 4 4 11q37 51 51 51q6 0 13 -6q29 -37 28 -97q0 -156 -213 -377q-4 -4 -10 -4q-10 1 -10 9zM246 -188q0 6 4 8q88 80 143 182q31 57 31 121q0 20 -2 29q-4 23 -22 48l-17 25q0 4 4 11q37 51 51 51 q6 0 13 -6q29 -37 28 -97q0 -156 -213 -377q-4 -4 -10 -4q-10 1 -10 9z" />
<glyph unicode="&#x2022;" horiz-adv-x="1024" d="M492 709q0 147 103 250.5t251 103.5q147 0 250.5 -103.5t103.5 -250.5t-103.5 -251t-250.5 -104t-250.5 104t-103.5 251z" />
<glyph unicode="&#x2026;" horiz-adv-x="1185" d="M182 20v7q0 35 28 66.5t62 31.5q8 0 13 -2q27 -8 26 -33q0 -4 -4 -16q-20 -59 -74 -82q-4 -2 -14 -2q-37 -1 -37 30zM541 20v7q0 35 27.5 66.5t62.5 31.5q8 0 12 -2q25 -6 25 -33q0 -10 -2 -16q-20 -59 -74 -82q-4 -2 -14 -2q-37 -1 -37 30zM907 20v7q0 35 28 66.5 t62 31.5q8 0 13 -2q25 -6 24 -33q0 -10 -2 -16q-20 -59 -74 -82q-4 -2 -14 -2q-37 -1 -37 30z" />
<glyph unicode="&#x202f;" horiz-adv-x="307" />
<glyph unicode="&#x2039;" horiz-adv-x="563" d="M252 197v4q0 8 14 18q2 2 78 62q254 201 258 200q8 0 8 -10v-4q-10 -8 -32 -29q-74 -53 -248 -190q-18 -14 -19 -29q0 -4 4 -20q27 -78 80 -232q0 -6 -14 -6q-61 -12 -47 -12q-10 0 -15 16q-32 126 -67 232z" />
<glyph unicode="&#x203a;" horiz-adv-x="563" d="M197 -51q0 6 12 16q119 92 260 219q14 12 14 23q0 4 -8 18q-63 104 -129 211q-4 8 -4 13q0 4 41 16q4 2 12 2q14 0 84 -119q20 -35 64 -102q4 -8 4 -13q0 -12 -8 -18q-154 -115 -293 -260q-16 -16 -33 -16q-16 0 -16 10z" />
<glyph unicode="&#x205f;" horiz-adv-x="382" />
<glyph unicode="&#x2122;" horiz-adv-x="882" d="M272 457q2 4 23 35l2 4q78 123 164 311l10 22q-70 -6 -168 -28l19 26q12 2 32 7q33 2 133 10l86 6l84 4l-18 -23q-10 4 -29 5q-51 0 -94 -7q-4 -6 -61 -108q-12 -20 -64 -119q-41 -78 -59 -119l-8 -18q-17 -2 -52 -8zM471 459l33 39l76 88l137 153q27 33 82 101 q12 4 30 12l-6 -61q-4 -37 -16 -127q0 -4 -8 -91l-4 -43q57 70 137 154l78 82q18 18 57 61q2 4 12 13q18 6 39 14l-8 -29l-16 -55q-20 -72 -50 -213q-2 -12 -14 -78q-20 -2 -43 -12l6 29l33 139q23 92 43 170l-47 -47q-78 -78 -133 -146q-49 -59 -98 -125q-2 -2 -37 -20 q2 25 12 102l10 90l12 142q-8 -8 -59 -66l-67 -76q-98 -111 -152 -188q-14 -2 -39 -12z" />
<glyph unicode="&#xe000;" horiz-adv-x="460" d="M0 460h460v-460h-460v460z" />
<glyph unicode="&#xfb01;" horiz-adv-x="761" d="M485 61q0 31 23 82q57 129 145 256q20 31 55 37q2 0 5 2h2q14 0 14 -12q0 -8 -6 -18q-111 -174 -148 -306q-6 -23 -6 -34q0 -47 49 -48q41 0 92 29q145 80 248 221q6 6 8 6q4 -2 5 -6q0 -4 -5 -10q-98 -127 -229 -213q-84 -55 -162 -55q-90 -1 -90 69zM780 676 q0 27 20.5 51.5t47.5 24.5t26 -27q0 -25 -22.5 -49.5t-46.5 -24.5q-25 0 -25 25zM-1438 -1063q0 8 4 8q6 -2 9 -12q20 -143 206 -143q260 0 547 235q213 176 408 453q156 223 362 610q84 160 170 313q-135 0 -168 -8h-2q0 -2 -2 -2q-6 0 -6 6q0 29 111 29h24q16 -2 23 -2h33 q205 369 401 668q287 434 500 434h8q92 0 92 -45v-8q-14 -74 -18 -164q0 -8 -9 -9q-6 0 -6 7v2q0 10 3 29.5t3 29.5q0 33 -12 41q-47 35 -104 35h-15q-178 0 -391 -320q-70 -106 -289 -542q-12 -25 -79 -154h90h96q20 0 55 -2h41q8 0 8 -6l-2 -6q-4 -4 -174 -8 q-90 -2 -121 -3h-4q-317 -602 -575 -931q-549 -702 -996 -703q-190 0 -221 162v6z" />
<glyph unicode="&#xfb02;" horiz-adv-x="811" d="M481 66q0 59 41 131q59 96 213 360l25 43q135 236 256 424q76 119 166 195q106 90 202 129q14 6 29 6q37 0 37 -37q0 -68 -90 -215q-215 -352 -514 -555q-31 -16 -88 -51q-195 -324 -195 -426q0 -66 59 -66q53 0 140 47q131 72 241 221q8 8 11 9q6 0 6 -7q-2 -6 -6 -10 q-90 -111 -191 -188q-135 -102 -244 -103q-98 1 -98 93zM774 522q35 20 68 43q293 211 448 506q45 86 64 174q2 6 2 19q0 33 -25 32q-20 0 -45 -24q-90 -90 -252 -344q-66 -100 -231 -359q-15 -27 -29 -47zM-1438 -1063q0 8 4 8q6 -2 9 -12q20 -143 206 -143q260 0 547 235 q213 176 408 453q156 223 362 610q84 160 170 313q-135 0 -168 -8h-2q0 -2 -2 -2q-6 0 -6 6q0 29 111 29h24q16 -2 23 -2h33q205 369 401 668q287 434 500 434h8q92 0 92 -45v-8q-14 -74 -18 -164q0 -8 -9 -9q-6 0 -6 7v2q0 10 3 29.5t3 29.5q0 33 -12 41q-47 35 -104 35 h-15q-178 0 -391 -320q-70 -106 -289 -542q-12 -25 -79 -154h90h96q20 0 55 -2h41q8 0 8 -6l-2 -6q-4 -4 -174 -8q-90 -2 -121 -3h-4q-317 -602 -575 -931q-549 -702 -996 -703q-190 0 -221 162v6z" />
<glyph unicode="&#xfb03;" horiz-adv-x="1153" d="M876 61q0 31 23 82q57 129 145 256q20 31 55 37q2 0 5 2h2q14 0 14 -12q0 -8 -6 -18q-111 -174 -148 -306q-6 -23 -6 -34q0 -47 49 -48q41 0 92 29q145 80 248 221q6 6 8 6q4 -2 5 -6q0 -4 -5 -10q-98 -127 -229 -213q-84 -55 -162 -55q-90 -1 -90 69zM1171 676 q0 27 20.5 51.5t47.5 24.5t26 -27q0 -25 -22.5 -49.5t-46.5 -24.5q-25 0 -25 25zM-1047 -1063q0 8 4 8q6 -2 9 -12q20 -143 206 -143q260 0 547 235q213 176 408 453q156 223 362 610q84 160 170 313q-135 0 -168 -8h-2q0 -2 -2 -2q-6 0 -6 6q0 29 111 29h24q16 -2 23 -2h33 q205 369 401 668q287 434 500 434h8q92 0 92 -45v-8q-14 -74 -18 -164q0 -8 -9 -9q-6 0 -6 7v2q0 10 3 29.5t3 29.5q0 33 -12 41q-47 35 -104 35h-15q-178 0 -391 -320q-70 -106 -289 -542q-12 -25 -79 -154h90h96q20 0 55 -2h41q8 0 8 -6l-2 -6q-4 -4 -174 -8 q-90 -2 -121 -3h-4q-317 -602 -575 -931q-549 -702 -996 -703q-190 0 -221 162v6zM-1438 -1063q0 8 4 8q6 -2 9 -12q20 -143 206 -143q260 0 547 235q213 176 408 453q156 223 362 610q84 160 170 313q-135 0 -168 -8h-2q0 -2 -2 -2q-6 0 -6 6q0 29 111 29h24q16 -2 23 -2 h33q205 369 401 668q287 434 500 434h8q92 0 92 -45v-8q-14 -74 -18 -164q0 -8 -9 -9q-6 0 -6 7v2q0 10 3 29.5t3 29.5q0 33 -12 41q-47 35 -104 35h-15q-178 0 -391 -320q-70 -106 -289 -542q-12 -25 -79 -154h90h96q20 0 55 -2h41q8 0 8 -6l-2 -6q-4 -4 -174 -8 q-90 -2 -121 -3h-4q-317 -602 -575 -931q-549 -702 -996 -703q-190 0 -221 162v6z" />
<glyph unicode="&#xfb04;" horiz-adv-x="1202" d="M872 66q0 59 41 131q59 96 213 360l25 43q135 236 256 424q76 119 166 195q106 90 202 129q14 6 29 6q37 0 37 -37q0 -68 -90 -215q-215 -352 -514 -555q-31 -16 -88 -51q-195 -324 -195 -426q0 -66 59 -66q53 0 140 47q131 72 241 221q8 8 11 9q6 0 6 -7q-2 -6 -6 -10 q-90 -111 -191 -188q-135 -102 -244 -103q-98 1 -98 93zM1165 522q35 20 68 43q293 211 448 506q45 86 64 174q2 6 2 19q0 33 -25 32q-20 0 -45 -24q-90 -90 -252 -344q-66 -100 -231 -359q-15 -27 -29 -47zM-1047 -1063q0 8 4 8q6 -2 9 -12q20 -143 206 -143q260 0 547 235 q213 176 408 453q156 223 362 610q84 160 170 313q-135 0 -168 -8h-2q0 -2 -2 -2q-6 0 -6 6q0 29 111 29h24q16 -2 23 -2h33q205 369 401 668q287 434 500 434h8q92 0 92 -45v-8q-14 -74 -18 -164q0 -8 -9 -9q-6 0 -6 7v2q0 10 3 29.5t3 29.5q0 33 -12 41q-47 35 -104 35 h-15q-178 0 -391 -320q-70 -106 -289 -542q-12 -25 -79 -154h90h96q20 0 55 -2h41q8 0 8 -6l-2 -6q-4 -4 -174 -8q-90 -2 -121 -3h-4q-317 -602 -575 -931q-549 -702 -996 -703q-190 0 -221 162v6zM-1438 -1063q0 8 4 8q6 -2 9 -12q20 -143 206 -143q260 0 547 235 q213 176 408 453q156 223 362 610q84 160 170 313q-135 0 -168 -8h-2q0 -2 -2 -2q-6 0 -6 6q0 29 111 29h24q16 -2 23 -2h33q205 369 401 668q287 434 500 434h8q92 0 92 -45v-8q-14 -74 -18 -164q0 -8 -9 -9q-6 0 -6 7v2q0 10 3 29.5t3 29.5q0 33 -12 41q-47 35 -104 35 h-15q-178 0 -391 -320q-70 -106 -289 -542q-12 -25 -79 -154h90h96q20 0 55 -2h41q8 0 8 -6l-2 -6q-4 -4 -174 -8q-90 -2 -121 -3h-4q-317 -602 -575 -931q-549 -702 -996 -703q-190 0 -221 162v6z" />
</font>
</defs>
</svg>
